<svg xmlns="http://www.w3.org/2000/svg" width="65.213" height="78.476" viewBox="0 0 65.213 78.476">
  <g id="Group_39" data-name="Group 39" transform="translate(0.997 1.02)">
    <path id="Path_43" data-name="Path 43" d="M606.557,164.717c0-4.384.01-7.549-.01-10.714a.894.894,0,0,1,.634-1q15.163-6.265,30.317-12.551a1.813,1.813,0,0,1,1.253.017Q653.833,146.7,668.9,152.96a1.007,1.007,0,0,1,.733,1.117c0,.171,0,.341,0,.579-.022,4.777.021,9.623-.023,14.468a52.775,52.775,0,0,1-30.9,47.546,1.741,1.741,0,0,1-1.306-.041q-23.528-11.326-29.571-36.6c-.066-.276-.141-.6-.214-.934" transform="translate(-606.419 -140.353)" fill="none" stroke="#f29700" stroke-miterlimit="10" stroke-width="2"/>
    <path id="Path_44" data-name="Path 44" d="M761.136,225.362l-.635-7.671" transform="translate(-760.501 -190.236)" fill="none" stroke="#f29700" stroke-width="2"/>
    <path id="Path_45" data-name="Path 45" d="M849,227.336l7.751,8.194,16.5-15.946" transform="translate(-829.499 -191.606)" fill="none" stroke="#f29700" stroke-width="2"/>
  </g>
</svg>
