<svg id="food" xmlns="http://www.w3.org/2000/svg" width="79.054" height="54.635" viewBox="0 0 79.054 54.635">
  <path id="Path_83" data-name="Path 83" d="M238.434,139.6a4.71,4.71,0,0,1,.068.794.154.154,0,0,0,.141.154,4.663,4.663,0,0,1,4.113,3.5.154.154,0,0,0,.106.11.153.153,0,0,0,.044.006.155.155,0,0,0,.105-.042,4.888,4.888,0,0,1,2.9-1.305.154.154,0,0,0,.14-.149,8.478,8.478,0,0,1,2.479-5.733c.032-.032.065-.062.1-.093a10.637,10.637,0,0,0-2.986-5.885.832.832,0,0,0-1.178,0l-6.778,6.793A4.667,4.667,0,0,1,238.434,139.6Z" transform="translate(-200.985 -130.715)" fill="#ef5050"/>
  <g id="Group_19" data-name="Group 19" transform="translate(40.274 3.265)">
    <path id="Path_84" data-name="Path 84" d="M262.337,201.987a.154.154,0,0,0,.106.11.152.152,0,0,0,.044.006.154.154,0,0,0,.105-.042,4.938,4.938,0,0,1,1.309-.879,1.154,1.154,0,0,0-.289-.484l-1.124-1.127a1.158,1.158,0,0,0-1.638,0l-.009.01A4.653,4.653,0,0,1,262.337,201.987Z" transform="translate(-260.841 -191.918)" fill="#c0272d"/>
    <path id="Path_85" data-name="Path 85" d="M271.077,182.2h-1.59a1.158,1.158,0,1,1,0-2.316h1.59a1.158,1.158,0,0,1,0,2.316Z" transform="translate(-267.173 -175.553)" fill="#c0272d"/>
    <path id="Path_86" data-name="Path 86" d="M268.034,155.3a1.158,1.158,0,0,1-.82-1.976l1.125-1.127a1.158,1.158,0,0,1,1.639,1.636l-1.125,1.127A1.155,1.155,0,0,1,268.034,155.3Z" transform="translate(-265.944 -151.862)" fill="#c0272d"/>
  </g>
  <path id="Path_87" data-name="Path 87" d="M302.811,154.657a.274.274,0,0,0-.154-.155,8.638,8.638,0,0,0-11.823,7.915c.16-.016.323-.024.487-.024a4.957,4.957,0,0,1,4.853,4,8.652,8.652,0,0,0,6.637-11.739Z" transform="translate(-245.929 -150.311)" fill="#89c947"/>
  <path id="Path_88" data-name="Path 88" d="M310.551,183.018a1.158,1.158,0,0,0-1.638,0l-4.006,4.015a4.96,4.96,0,0,1,1.96,1.315l3.685-3.694A1.158,1.158,0,0,0,310.551,183.018Z" transform="translate(-257.83 -174.656)" fill="#d5e962"/>
  <g id="Group_20" data-name="Group 20" transform="translate(15.472 10.224)">
    <path id="Path_89" data-name="Path 89" d="M356.932,204.313a4.237,4.237,0,0,1,.061.715.155.155,0,0,0,.141.154,4.166,4.166,0,0,1,1.776.577.154.154,0,0,0,.2-.031c.132-.151.245-.273.356-.384a7.734,7.734,0,0,1,3.288-1.964,5.1,5.1,0,1,0-9.878-2.544A4.187,4.187,0,0,1,356.932,204.313Z" transform="translate(-313.858 -196.929)" fill="#ffc502"/>
    <path id="Path_90" data-name="Path 90" d="M108.328,258.868a7.958,7.958,0,0,1-.969-2.956,4.651,4.651,0,0,1-3.437-2.563,5.081,5.081,0,0,0-3.677,5.518h8.084Z" transform="translate(-100.206 -244.638)" fill="#ffc502"/>
  </g>
  <path id="Path_91" data-name="Path 91" d="M393.858,241.378a4.165,4.165,0,0,1-.342,2.513h6.553a7.955,7.955,0,0,0,.915-7.548.252.252,0,0,0-.056-.086.255.255,0,0,0-.085-.056,7.911,7.911,0,0,0-8.537,1.765c-.164.164-.317.336-.464.511A4.2,4.2,0,0,1,393.858,241.378Z" transform="translate(-331.342 -219.438)" fill="#89c947"/>
  <path id="Path_92" data-name="Path 92" d="M402.678,265.733h1.432l2.284-2.289a1.158,1.158,0,0,0-1.64-1.636l-1.7,1.7A4.16,4.16,0,0,1,402.678,265.733Z" transform="translate(-340.504 -241.279)" fill="#d5e962"/>
  <path id="Path_93" data-name="Path 93" d="M143.621,170.758a4.819,4.819,0,0,0-4.276-3.747,4.827,4.827,0,0,0-8.855-2.649,4.828,4.828,0,0,0-7.444,5.487,4.821,4.821,0,0,0,1.247,9.139,7.782,7.782,0,0,1,.475-3.989.1.1,0,0,1,.022-.034.1.1,0,0,1,.033-.022,7.756,7.756,0,0,1,8.37,1.731c.106.107.208.217.307.329a10.64,10.64,0,0,1-.125-1.624.68.68,0,0,1,.678-.68h8.085c-.007-.107-.012-.216-.012-.325A5.1,5.1,0,0,1,143.621,170.758Z" transform="translate(-101.674 -157.334)" fill="#368c0e"/>
  <g id="Group_21" data-name="Group 21" transform="translate(23.879 9.085)">
    <path id="Path_94" data-name="Path 94" d="M155.81,194.344h-.02a1.158,1.158,0,0,1-1.138-1.177,3.683,3.683,0,0,1,3.678-3.614h.059a3.686,3.686,0,0,1,2.654,1.2,1.158,1.158,0,0,1-1.71,1.562,1.343,1.343,0,0,0-.981-.441,1.363,1.363,0,0,0-1.385,1.337A1.158,1.158,0,0,1,155.81,194.344Z" transform="translate(-154.652 -189.552)" fill="#89c947"/>
    <path id="Path_95" data-name="Path 95" d="M197.216,212.891a1.159,1.159,0,0,1-1.086-1.561,3.373,3.373,0,0,1,6.266-.15,1.158,1.158,0,1,1-2.132.906,1.043,1.043,0,0,0-.6-.576,1.06,1.06,0,0,0-1.36.625A1.159,1.159,0,0,1,197.216,212.891Z" transform="translate(-189.665 -206.106)" fill="#89c947"/>
  </g>
  <path id="Path_96" data-name="Path 96" d="M324.713,224.586h-.042c0,.011,0,.022,0,.033h1.551a.834.834,0,0,1,.833.835,10.633,10.633,0,0,1-2.016,6.235h11.688a4.346,4.346,0,0,0-3.58-6.131,4.36,4.36,0,0,0-8-2.393,4.374,4.374,0,0,0-.662-.406,4.949,4.949,0,0,1,.237,1.516C324.723,224.375,324.72,224.478,324.713,224.586Z" transform="translate(-274.385 -207.234)" fill="#368c0e"/>
  <path id="Path_97" data-name="Path 97" d="M271.147,213.4c.007-.107.012-.216.012-.325a5.1,5.1,0,1,0-10.2,0c0,.109.005.217.012.325Z" transform="translate(-220.666 -196.036)" fill="#f7931e"/>
  <path id="Path_98" data-name="Path 98" d="M154.248,242.511a7.912,7.912,0,0,0-8.537-1.765.26.26,0,0,0-.086.056.253.253,0,0,0-.056.086,7.956,7.956,0,0,0,.469,6.846H156.55a10.655,10.655,0,0,1-2.04-4.947Q154.383,242.646,154.248,242.511Z" transform="translate(-122.619 -223.28)" fill="#89c947"/>
  <path id="Path_99" data-name="Path 99" d="M172.675,269.576h3.272l-3.216-3.223a1.158,1.158,0,0,0-1.64,1.636Z" transform="translate(-144.388 -245.122)" fill="#d5e962"/>
  <path id="Path_100" data-name="Path 100" d="M223.5,249.418a10.642,10.642,0,0,0,2.142-6.409.834.834,0,0,0-.833-.835H205.153a.834.834,0,0,0-.833.835,10.641,10.641,0,0,0,2.142,6.409Z" transform="translate(-172.773 -224.964)" fill="#ef5050"/>
  <g id="Group_22" data-name="Group 22" transform="translate(34.162 19.015)">
    <path id="Path_101" data-name="Path 101" d="M268.466,278.362v-.8a1.158,1.158,0,0,0-2.316,0v.8Z" transform="translate(-259.217 -272.923)" fill="#c0272d"/>
    <path id="Path_102" data-name="Path 102" d="M287.994,272.563h1.8a1.158,1.158,0,0,0-.077-1.551l-1.124-1.127a1.158,1.158,0,1,0-1.64,1.636Z" transform="translate(-276.523 -267.124)" fill="#c0272d"/>
    <path id="Path_103" data-name="Path 103" d="M239.283,272.564l1.039-1.042a1.158,1.158,0,0,0-1.639-1.636l-1.124,1.127a1.158,1.158,0,0,0-.077,1.551Z" transform="translate(-234.754 -267.125)" fill="#c0272d"/>
    <path id="Path_104" data-name="Path 104" d="M224,256.181h-1.59a1.158,1.158,0,1,1,0-2.316H224a1.158,1.158,0,1,1,0,2.316Z" transform="translate(-221.25 -253.865)" fill="#c0272d"/>
    <path id="Path_105" data-name="Path 105" d="M302.955,256.181h-1.59a1.158,1.158,0,1,1,0-2.316h1.59a1.158,1.158,0,1,1,0,2.316Z" transform="translate(-288.016 -253.865)" fill="#c0272d"/>
  </g>
  <path id="Path_106" data-name="Path 106" d="M87.265,296.836a.154.154,0,0,0,.135-.025.154.154,0,0,0,.061-.123v-1.96a1,1,0,0,1,2.007,0v1.96a.154.154,0,0,0,.154.154.149.149,0,0,0,.042-.006,10.4,10.4,0,0,1,2.771-.35c2.811,0,4.7.911,4.7,1.762a.7.7,0,0,1-.1.342.154.154,0,0,0,.075.219,10.7,10.7,0,0,1,6.656,8.212.154.154,0,0,0,.208.123l24.376-9.26a4.13,4.13,0,0,1,5.531,3.095l.212,1.146a.154.154,0,0,0,.23.1l8.2-4.838a28.716,28.716,0,0,0,1.061-7.784.8.8,0,0,0-.8-.8H87.02a.8.8,0,0,0-.8.8,28.787,28.787,0,0,0,.9,7.192C87.171,296.812,87.219,296.823,87.265,296.836Z" transform="translate(-72.908 -264.398)" fill="#e6e9ed"/>
  <path id="Path_107" data-name="Path 107" d="M87.265,296.836a.157.157,0,0,0,.042.006.154.154,0,0,0,.154-.154v-1.96a1,1,0,0,1,2.007,0v1.96a.154.154,0,0,0,.154.154.148.148,0,0,0,.042-.006,10.05,10.05,0,0,1,2.342-.342,28.835,28.835,0,0,1-.824-6.887.8.8,0,0,1,.8-.8H87.02a.8.8,0,0,0-.8.8,28.787,28.787,0,0,0,.9,7.192C87.171,296.812,87.219,296.823,87.265,296.836Z" transform="translate(-72.908 -264.398)" opacity="0.1"/>
  <path id="Path_108" data-name="Path 108" d="M94.41,323.466a5.369,5.369,0,0,1,1.158-.46v-2.2a1.158,1.158,0,1,0-2.316,0v2.2A5.352,5.352,0,0,1,94.41,323.466Z" transform="translate(-78.854 -290.476)" fill="#89c947"/>
  <path id="Path_109" data-name="Path 109" d="M27.386,372.537l-4.182,0h0a4.123,4.123,0,0,1-4.059-3.365l-.041-.222a4.108,4.108,0,0,1,2.588-4.586l9.343-3.549a10.8,10.8,0,0,0-6.917-8.55c-.361.607-1.605,1.136-3.225,1.326a.154.154,0,0,0-.079.274,3.4,3.4,0,0,1,1.411,1.894.585.585,0,0,1-.14.463,1.488,1.488,0,0,1-1.12.34h0a8.481,8.481,0,0,1-3.771-1.166,9.512,9.512,0,0,1-1.537-1.045.154.154,0,0,0-.2,0A9.491,9.491,0,0,1,13.92,355.4a8.48,8.48,0,0,1-3.771,1.166,1.488,1.488,0,0,1-1.12-.34.585.585,0,0,1-.141-.462,3.405,3.405,0,0,1,1.411-1.895.154.154,0,0,0-.079-.274c-1.62-.19-2.865-.719-3.225-1.327a10.669,10.669,0,0,0-7,9.779c0,5.881,5.185,10.648,11.581,10.648H27.638C27.811,372.693,27.677,372.631,27.386,372.537Z" transform="translate(0 -318.058)" fill="#ef5050"/>
  <path id="Path_110" data-name="Path 110" d="M5.01,362.046a10.378,10.378,0,0,1,4.655-8.535A4.064,4.064,0,0,1,7,352.267a10.669,10.669,0,0,0-7,9.779c0,5.881,5.185,10.648,11.581,10.648h5.011C10.2,372.694,5.01,367.926,5.01,362.046Z" transform="translate(0 -318.059)" opacity="0.1"/>
  <path id="Path_111" data-name="Path 111" d="M61.245,339.456c0-1.059-2.173-1.917-4.854-1.917a8.607,8.607,0,0,0-3.971.815,8.6,8.6,0,0,0-3.971-.815c-2.68,0-4.854.858-4.854,1.917,0,.869,1.465,1.6,3.471,1.837-1.228.982-1.79,2.015-1.29,2.58.663.748,2.938.393,5.081-.793a9.675,9.675,0,0,0,1.561-1.063,9.709,9.709,0,0,0,1.562,1.063c2.143,1.186,4.418,1.542,5.081.793.5-.565-.062-1.6-1.29-2.58C59.781,341.057,61.245,340.324,61.245,339.456Z" transform="translate(-36.864 -305.605)" fill="#368c0e"/>
  <path id="Path_112" data-name="Path 112" d="M413.99,345.411l-.311-1.677a1.07,1.07,0,0,0-1.247-.855l-12,2.2,7.663-5.123a1.061,1.061,0,0,0,.336-1.408l-.867-1.536a1.073,1.073,0,0,0-1.479-.395l-9.969,5.885L398,352.689l11.434,2.055a1.07,1.07,0,0,0,1.249-.893l.259-1.734a1.052,1.052,0,0,0-.006-.35,1.068,1.068,0,0,0-.813-.846l-8.994-2.063,12-2.2A1.066,1.066,0,0,0,413.99,345.411Z" transform="translate(-334.954 -304.704)" fill="#89c947"/>
  <path id="Path_113" data-name="Path 113" d="M122.381,362.923a4.277,4.277,0,0,0,4.213,3.491l36.125-.014a4.27,4.27,0,0,0,4.21-5.038l-2.413-13.03a4.284,4.284,0,0,0-5.738-3.211l-33.752,12.822a4.263,4.263,0,0,0-2.685,4.758Z" transform="translate(-103.39 -311.779)" fill="#f7931e"/>
  <g id="Group_23" data-name="Group 23" transform="translate(18.879 33.062)" opacity="0.1">
    <path id="Path_114" data-name="Path 114" d="M122.381,362.924a4.242,4.242,0,0,0,.271.887,4.459,4.459,0,0,1,2.307-1.984l35.248-13.391a4.468,4.468,0,0,1,4.465.749l-.158-.852a4.284,4.284,0,0,0-5.738-3.211l-33.752,12.822a4.263,4.263,0,0,0-2.685,4.758Z" transform="translate(-122.269 -344.842)"/>
  </g>
  <g id="Group_24" data-name="Group 24" transform="translate(26.489 36.912)">
    <path id="Path_115" data-name="Path 115" d="M358.266,444.237a1.158,1.158,0,0,0-2.275.435l.953,4.983H359.3Z" transform="translate(-327.497 -431.946)" fill="#ffc502"/>
    <path id="Path_116" data-name="Path 116" d="M317.608,453.114a1.158,1.158,0,1,0-2.276.429l.682,3.618h2.357Z" transform="translate(-293.116 -439.449)" fill="#ffc502"/>
    <path id="Path_117" data-name="Path 117" d="M284.765,374.723a1.158,1.158,0,0,0,2.246-.566l-1.1-4.377-2.18.828Z" transform="translate(-266.41 -369.78)" fill="#ffc502"/>
    <path id="Path_118" data-name="Path 118" d="M238.829,446.528a1.158,1.158,0,0,0-2.279.411l.839,4.65h2.353Z" transform="translate(-226.499 -433.872)" fill="#ffc502"/>
    <path id="Path_119" data-name="Path 119" d="M172.208,416.28a1.158,1.158,0,0,0,2.267-.476l-.722-3.441-2.192.833Z" transform="translate(-171.561 -405.789)" fill="#ffc502"/>
  </g>
</svg>
