<svg xmlns="http://www.w3.org/2000/svg" width="77.128" height="61.134" viewBox="0 0 77.128 61.134">
  <path id="Path_365" data-name="Path 365" d="M60.6,72.108H50.477a2.935,2.935,0,0,1,0-5.869H60.6a2.935,2.935,0,0,1,0,5.869Zm2.935,8.951A2.935,2.935,0,0,0,60.6,78.124H50.477a2.935,2.935,0,0,0,0,5.869H60.6A2.935,2.935,0,0,0,63.536,81.059Zm-5.869,17.9A2.935,2.935,0,1,0,60.6,96.026,2.935,2.935,0,0,0,57.667,98.96Zm-5.869,0a2.935,2.935,0,0,0-2.935-2.935H40.205a2.935,2.935,0,0,0,0,5.869h8.657A2.935,2.935,0,0,0,51.8,98.96Zm-20.4,0a2.935,2.935,0,0,0-2.935-2.935H14.673a2.935,2.935,0,0,0,0,5.869H28.466A2.935,2.935,0,0,0,31.4,98.96Zm0-11.739V69.173a2.935,2.935,0,0,0-2.935-2.935H14.673a2.935,2.935,0,0,0-2.935,2.935V87.222a2.935,2.935,0,0,0,2.935,2.935H28.466A2.935,2.935,0,0,0,31.4,87.222ZM37.27,69.173a2.935,2.935,0,1,0,2.935-2.935A2.935,2.935,0,0,0,37.27,69.173Zm.147,11.885a2.935,2.935,0,1,0,2.935-2.935A2.935,2.935,0,0,0,37.417,81.059Zm37.711,6.163V66.239A11.752,11.752,0,0,0,63.389,54.5H11.739A11.752,11.752,0,0,0,0,66.239V101.9a11.752,11.752,0,0,0,11.739,11.739h51.65A11.752,11.752,0,0,0,75.128,101.9" transform="translate(1 -53.5)" fill="none" stroke="#f29700" stroke-miterlimit="10" stroke-width="2"/>
</svg>
