<svg xmlns="http://www.w3.org/2000/svg" width="75.233" height="75.233" viewBox="0 0 75.233 75.233">
  <g id="Group_621" data-name="Group 621" transform="translate(1.066 1.066)">
    <path id="Path_339" data-name="Path 339" d="M248.482,140.24v2.343a2.373,2.373,0,0,0,4.747,0V140.24a36.351,36.351,0,0,1,13.844,3.713l-1.169,2.025a2.374,2.374,0,1,0,4.111,2.374l1.166-2.02a36.924,36.924,0,0,1,10.132,10.132l-2.02,1.166a2.374,2.374,0,1,0,2.374,4.111l2.025-1.17a36.358,36.358,0,0,1,3.713,13.844h-2.343a2.373,2.373,0,0,0,0,4.747h2.34a36.136,36.136,0,0,1-3.708,13.845l-2.028-1.171a2.374,2.374,0,0,0-2.374,4.111l2.015,1.164" transform="translate(-214.305 -140.24)" fill="none" stroke="#f29700" stroke-miterlimit="10" stroke-width="2"/>
    <path id="Path_340" data-name="Path 340" d="M146.333,205.163l2.02-1.166a2.374,2.374,0,0,0-2.373-4.111l-2.025,1.169a36.356,36.356,0,0,1-3.713-13.844h2.343a2.373,2.373,0,1,0,0-4.747H140.24a36.353,36.353,0,0,1,3.713-13.844l2.025,1.17a2.373,2.373,0,1,0,2.373-4.111l-2.02-1.166a36.931,36.931,0,0,1,10.132-10.132l1.166,2.02a2.374,2.374,0,0,0,4.111-2.374L160.573,152" transform="translate(-140.24 -148.288)" fill="none" stroke="#f29700" stroke-miterlimit="10" stroke-width="2"/>
    <path id="Path_341" data-name="Path 341" d="M232.275,345.51l-1.165-2.017A2.374,2.374,0,0,0,227,345.866l1.169,2.026a36.171,36.171,0,0,1-13.844,3.71v-2.34a2.373,2.373,0,1,0-4.747,0V351.6a36.353,36.353,0,0,1-13.844-3.713l1.169-2.026a2.374,2.374,0,0,0-4.111-2.374l-1.166,2.02" transform="translate(-175.401 -278.504)" fill="none" stroke="#f29700" stroke-miterlimit="10" stroke-width="2"/>
    <path id="Path_342" data-name="Path 342" d="M206.516,171.531a2.373,2.373,0,0,0-2.373,2.373v17.2a7.522,7.522,0,0,0-4.727,4.727h-13.36a2.373,2.373,0,0,0,0,4.747h13.36a7.488,7.488,0,1,0,9.474-9.475V173.9a2.373,2.373,0,0,0-2.373-2.373Zm0,29.412a2.742,2.742,0,1,1,2.742-2.742A2.745,2.745,0,0,1,206.516,200.943Z" transform="translate(-166.78 -156.872)" fill="none" stroke="#f29700" stroke-miterlimit="10" stroke-width="2"/>
  </g>
</svg>
