<svg xmlns="http://www.w3.org/2000/svg" width="102.546" height="84.471" viewBox="0 0 102.546 84.471">
  <g id="Group_643" data-name="Group 643" transform="translate(0 1)">
    <path id="Path_20" data-name="Path 20" d="M371,247.471V178.358L412.778,165v10.454" transform="translate(-361.776 -165)" fill="none" stroke="#f29700" stroke-linecap="square" stroke-linejoin="round" stroke-width="2"/>
    <path id="Path_21" data-name="Path 21" d="M448,262.97V206h41.778v38.523" transform="translate(-396.998 -183.754)" fill="none" stroke="#f29700" stroke-linecap="square" stroke-linejoin="round" stroke-width="2"/>
    <path id="Path_22" data-name="Path 22" d="M354,317H456.546" transform="translate(-354 -234.529)" fill="none" stroke="#f29700" stroke-width="2"/>
    <path id="Path_23" data-name="Path 23" d="M525,290.463v5.642" transform="translate(-432.22 -222.39)" fill="none" stroke="#f29700" stroke-width="2"/>
    <path id="Path_24" data-name="Path 24" d="M395.452,206h15.69" transform="translate(-372.961 -183.755)" fill="none" stroke="#f29700" stroke-width="2"/>
    <path id="Path_25" data-name="Path 25" d="M395.452,206h15.69" transform="translate(-372.961 -168.562)" fill="none" stroke="#f29700" stroke-width="2"/>
    <path id="Path_26" data-name="Path 26" d="M395.452,206h15.69" transform="translate(-372.961 -153.37)" fill="none" stroke="#f29700" stroke-width="2"/>
    <path id="Path_27" data-name="Path 27" d="M395.452,206h15.69" transform="translate(-372.961 -138.178)" fill="none" stroke="#f29700" stroke-width="2"/>
    <path id="Path_28" data-name="Path 28" d="M395.452,206h15.69" transform="translate(-331.183 -138.178)" fill="none" stroke="#f29700" stroke-width="2"/>
    <path id="Path_29" data-name="Path 29" d="M395.452,206h15.69" transform="translate(-331.183 -153.37)" fill="none" stroke="#f29700" stroke-width="2"/>
    <path id="Path_30" data-name="Path 30" d="M395.452,206h15.69" transform="translate(-331.183 -168.562)" fill="none" stroke="#f29700" stroke-width="2"/>
  </g>
</svg>
