<svg xmlns="http://www.w3.org/2000/svg" width="210.797" height="48" viewBox="0 0 210.797 48">
  <g id="Group_541" data-name="Group 541" transform="translate(-38.203 -28)">
    <text id="LOCAL_GROCERYS" data-name="LOCAL
GROCERYS" transform="translate(133 47)" fill="#23934c" font-size="20" font-family="Montserrat-Regular, Montserrat"><tspan x="0" y="0">LOCAL</tspan><tspan fill="#f29700" font-family="Montserrat-Bold, Montserrat" font-weight="700"><tspan x="0" y="24">GROCERYS</tspan></tspan></text>
    <g id="Lgs_Final_Logo100" data-name="Lgs Final Logo100" transform="translate(26.687 6.983)">
      <path id="Path_461" data-name="Path 461" d="M124.106,131.636a2.585,2.585,0,0,1-2.737-2.627,3.931,3.931,0,0,1,3.8-3.8,2.619,2.619,0,0,1,2.7,2.608A3.9,3.9,0,0,1,124.106,131.636Z" transform="translate(-70.846 -63.963)" fill="#606161"/>
      <path id="Path_462" data-name="Path 462" d="M149.2,131.83a2.589,2.589,0,0,1-2.661-2.661,3.9,3.9,0,0,1,3.87-3.691,2.558,2.558,0,0,1,2.634,2.642,3.87,3.87,0,0,1-3.843,3.71Z" transform="translate(-86.447 -64.13)" fill="#606161"/>
      <path id="Path_463" data-name="Path 463" d="M18.931,87.535l-.171-.16a.624.624,0,0,1,.1-.125l.186.19A.689.689,0,0,1,18.931,87.535Z" transform="translate(-7.243 -40.435)" fill="#f19820"/>
      <path id="Path_464" data-name="Path 464" d="M174.531,32.939c-.642-.034-1.311.239-1.924-.163.323-.479.152-.821-.3-1.072-.547-.3-1.1-.578-1.654-.863a1.14,1.14,0,0,1,.327-.722c.589.281,1.186.555,1.775.844.285.137.559.171.73-.141a.516.516,0,0,0-.281-.76c-.589-.293-1.171-.593-1.756-.886a1.6,1.6,0,0,1,.418-.741c.6.27,1.2.536,1.79.817.323.156.627.19.787-.182s-.1-.513-.38-.658c-.551-.3-1.095-.6-1.642-.9a1.178,1.178,0,0,1,.437-.6,4.222,4.222,0,0,1,1.3.513c.346.137.76.559,1.042,0s-.251-.76-.642-.935-.669-.338-1-.509l.722-.76a2.17,2.17,0,0,0,1.232.76.471.471,0,0,0,.62-.266c.125-.281-.023-.479-.255-.616-.293-.175-.6-.331-.893-.49a3.334,3.334,0,0,1,2.136-1.061c1.19-.072,1.692.677,1.163,1.733-.855,1.707-1.737,3.421-2.585,5.113-.137.281-.46.54-.266.928h0c-.1-.152-.194-.068-.262,0s.034.133.057.2C175.052,32,174.486,32.316,174.531,32.939Z" transform="translate(-101.394 -0.942)" fill="#e28a43"/>
      <path id="Path_465" data-name="Path 465" d="M167.579,30.8a1.6,1.6,0,0,0-.418.741,1.924,1.924,0,0,0-.468.943,1.14,1.14,0,0,0-.327.722,2.3,2.3,0,0,0-.418.992l-.38,1.11-1.73-.034c.023-1.726-.323-3.467.194-5.17.091-.3-.1-.38-.293-.487.03-.11.167-.205.057-.338h0a.814.814,0,0,0,.684-.137c.262.84-.692,1.627-.038,2.505-.019-1.323.985-2.311,1.232-3.687-.65.3-.506,1.14-1.213,1.14l-.072-.034v-.08a2.783,2.783,0,0,0,.57-1.631l2.049.019a6.638,6.638,0,0,0,.958,2.661Z" transform="translate(-97.11 -3.312)" fill="#e3e4e5"/>
      <path id="Path_466" data-name="Path 466" d="M132.874,35.837c-.194.3-.38.053-.563,0-1.33-2.927-3.877-3.855-6.812-4.147h-.35c1.14-.639,2.326-.274,3.5-.114.118.084.236.179.38.057l-.205-.239a5.7,5.7,0,0,0-1.14-1.114c-.2-.175-.357-.38-.221-.642s.38-.209.589-.186a7.029,7.029,0,0,1,2.4.76c.205.1.445.38.658.118s-.084-.456-.19-.665c-.163-.335-.354-.658-.532-.988a.4.4,0,0,1,.38-.217h0c.422.935,1.327,1.593,1.521,2.661.3.692.563,1.441,1.578.855.285-.16.521.046.7.281-.795.141-1.612.255-1.722,1.3-.11-.049-.278-.072-.319-.16a8.94,8.94,0,0,0-2.125-2.361,4.182,4.182,0,0,0-2.345-1.178A13.962,13.962,0,0,1,132.874,35.837Zm-1.521-5.09c.042.042.11.125.122.118.129-.084.038-.148-.03-.209a1.174,1.174,0,0,0-.167-.129c-.137.122-.023.167.068.22Z" transform="translate(-73.19 -3.992)" fill="#f7d54b"/>
      <path id="Path_467" data-name="Path 467" d="M159,33.285c.2.1.38.19.293.487-.517,1.7-.171,3.444-.194,5.17a6.067,6.067,0,0,1-2.726-.179.471.471,0,0,1-.186-.684,9.355,9.355,0,0,0,.418-1.521c.084-.452-.084-.928.1-1.372.38-.239.4-.669.555-1.03a1.494,1.494,0,0,1,1-.886Z" transform="translate(-92.383 -6.975)" fill="#9bbd58"/>
      <path id="Path_468" data-name="Path 468" d="M145.087,25.445l1.171,1.19c.559,1.114,1.273,2.174,1.163,3.509-.456-.1-.848.19-1.285.213-.118-.316.072-.779-.437-.9a12.514,12.514,0,0,0-2.262-2.7c-.133-.973.407-.73,1.114-.308C143.981,25.4,144.4,25.3,145.087,25.445Z" transform="translate(-84.513 -2.093)" fill="#7b3092"/>
      <path id="Path_469" data-name="Path 469" d="M152.075,30.158c.11-1.334-.6-2.395-1.163-3.509a1.258,1.258,0,0,1,.205-.924,1.03,1.03,0,0,1,.958-.285,1.944,1.944,0,0,1,.76,1.429c.247,1.14.441,2.307.658,3.459-.186.449-.019.924-.1,1.376C153.086,31.063,152.877,30.348,152.075,30.158Z" transform="translate(-89.148 -2.107)" fill="#e28a43"/>
      <path id="Path_470" data-name="Path 470" d="M135.452,43.881a15.912,15.912,0,0,1-4.182.179c.228-.483.3-1.026,1-1.205a.521.521,0,0,0,.076-.985c.057-.129.118-.258.179-.38A7.766,7.766,0,0,1,135.452,43.881Z" transform="translate(-76.984 -12.07)" fill="#9bbd58"/>
      <path id="Path_471" data-name="Path 471" d="M180.856,45.054c-.046-.623.521-.943.718-1.448l.205-.205h0c1.521-.76,2.532-.141,2.661,1.638Z" transform="translate(-107.718 -13.057)" fill="#b95128"/>
      <path id="Path_472" data-name="Path 472" d="M143.483,23.683c-.692-.144-1.106-.042-.536,1-.707-.422-1.247-.665-1.114.308l-.559.008h0l.046-.065a3.62,3.62,0,0,0-.49-2.387c.566.323,1.038.623,1.661.266a1.14,1.14,0,0,1,.992.867Z" transform="translate(-82.91 -0.33)" fill="#9bbd58"/>
      <path id="Path_473" data-name="Path 473" d="M173.84,34.9l.357-.76.213-.175c.547.3,1.091.608,1.642.9.266.144.509.323.38.658s-.464.338-.787.182C175.041,35.431,174.437,35.165,173.84,34.9Z" transform="translate(-103.371 -7.403)" fill="#b95128"/>
      <path id="Path_474" data-name="Path 474" d="M177.186,30c.335.171.665.342,1,.509s.916.38.642.935-.7.125-1.042,0a4.222,4.222,0,0,0-1.3-.513,2.744,2.744,0,0,1,.7-.931Z" transform="translate(-105.014 -4.948)" fill="#b95128"/>
      <path id="Path_475" data-name="Path 475" d="M168.919,25.681l-2.049-.019c0-.73.22-1.076,1.087-1.072S168.9,25.054,168.919,25.681Z" transform="translate(-99.051 -1.595)" fill="#3f3f3f"/>
      <path id="Path_476" data-name="Path 476" d="M128.656,38.627c-.061.133-.122.262-.179.38-1.011-.494-2.015-1.007-3.041-1.483-.3-.141-.471-.289-.361-.635h.35c.3.38.76.38,1.159.544A5.244,5.244,0,0,1,128.656,38.627Z" transform="translate(-73.123 -9.219)" fill="#ebb33e"/>
      <path id="Path_477" data-name="Path 477" d="M151.543,23.334a1.03,1.03,0,0,0-.958.285c-.133-.175-.266-.346-.407-.513-.335-.4,0-.76.205-.947s.589-.262.76.243C151.258,22.71,151.718,22.881,151.543,23.334Z" transform="translate(-88.616 0)" fill="#9bbd58"/>
      <path id="Path_478" data-name="Path 478" d="M180.923,26.29c.3.16.6.316.893.49.232.137.38.335.255.616a.471.471,0,0,1-.62.266,2.022,2.022,0,0,1-1.232-.76Z" transform="translate(-107.326 -2.649)" fill="#b95128"/>
      <path id="Path_479" data-name="Path 479" d="M160.931,31.249H160.2c-.38-.338-.859-.627-.977-1.239.84-.171,1.19.6,1.768.9C161.1,31.044,160.961,31.131,160.931,31.249Z" transform="translate(-94.309 -4.939)" fill="#3f3f3f"/>
      <path id="Path_480" data-name="Path 480" d="M140.264,28.041l-.046.065-.76-.171h0l-.338-.22C139.629,27.371,139.892,27.892,140.264,28.041Z" transform="translate(-81.85 -3.46)" fill="#f7d54b"/>
      <path id="Path_481" data-name="Path 481" d="M138.62,27.89l.338.22a.4.4,0,0,0-.38.217C138.35,28.152,138.13,27.974,138.62,27.89Z" transform="translate(-81.357 -3.64)" fill="#ebb23c"/>
      <path id="Path_482" data-name="Path 482" d="M164.372,31.7v.08l.072.034v.034a.814.814,0,0,1-.684.137C163.889,31.708,164.159,31.765,164.372,31.7Z" transform="translate(-97.123 -6.002)" fill="#3f3f3f"/>
      <path id="Path_483" data-name="Path 483" d="M148.711,37.859c.821.19,1.03.9,1.319,1.547a9.358,9.358,0,0,1-.418,1.521.471.471,0,0,0,.186.684,3.67,3.67,0,0,1-3.748-.509,2.25,2.25,0,0,1-.574-1.707c.11-1.045.928-1.14,1.722-1.3h.228C147.844,38.049,148.236,37.764,148.711,37.859Zm-2.247,1.182c-.623.5-.521,1.026-.1,1.646C146.514,40.09,146.309,39.554,146.464,39.041Z" transform="translate(-85.784 -9.807)" fill="#d75336"/>
      <path id="Path_484" data-name="Path 484" d="M137.661,35.859a2.25,2.25,0,0,0,.593,1.707c-.243.133-.152.6-.563.566a13.909,13.909,0,0,0-4.8-5.972,4.182,4.182,0,0,1,2.345,1.178A9.141,9.141,0,0,1,137.36,35.7C137.383,35.787,137.551,35.809,137.661,35.859Z" transform="translate(-77.988 -6.287)" fill="#ebb23c"/>
      <path id="Path_485" data-name="Path 485" d="M129.294,38.658a4.959,4.959,0,0,0-2.064-1.175c-.38-.179-.863-.171-1.159-.544,2.935.293,5.482,1.22,6.812,4.147-.232.331-.437,0-.654-.027a7.766,7.766,0,0,0-2.935-2.4Z" transform="translate(-73.76 -9.25)" fill="#ebb23c"/>
      <path id="Path_486" data-name="Path 486" d="M169.55,43.742a2.3,2.3,0,0,1,.418-.992c.551.285,1.106.566,1.654.863.456.251.627.593.3,1.072h-.563a7.189,7.189,0,0,0-1.813-.943Z" transform="translate(-100.712 -12.851)" fill="#b95128"/>
      <path id="Path_487" data-name="Path 487" d="M168.912,45.36a7.189,7.189,0,0,1,1.813.954c-.715.38-1.467.125-2.2.156Z" transform="translate(-100.073 -14.469)" fill="#e28a43"/>
      <path id="Path_488" data-name="Path 488" d="M171.51,39.313a1.924,1.924,0,0,1,.468-.943c.585.293,1.167.593,1.756.886.335.167.471.422.281.76s-.445.278-.73.141C172.7,39.868,172.1,39.594,171.51,39.313Z" transform="translate(-101.927 -10.136)" fill="#b95128"/>
      <path id="Path_489" data-name="Path 489" d="M182.852,43.8l-.205.205c-.023-.065-.084-.167-.057-.2S182.741,43.65,182.852,43.8Z" transform="translate(-108.79 -13.458)" fill="#fff"/>
      <path id="Path_490" data-name="Path 490" d="M165.2,30.175V30.14c.707,0,.563-.848,1.213-1.14-.247,1.376-1.251,2.364-1.232,3.687C164.507,31.8,165.462,31.015,165.2,30.175Z" transform="translate(-97.851 -4.328)" fill="#fbfaf9"/>
      <path id="Path_491" data-name="Path 491" d="M146.485,36.225h-.228c-.179-.236-.414-.441-.7-.281-1.015.585-1.273-.163-1.578-.855l.791-.228a1.52,1.52,0,0,1,.962.608c.182.236.285.057.316-.152C146.557,35.445,146.367,35.909,146.485,36.225Z" transform="translate(-84.862 -7.961)" fill="#9bbd58"/>
      <path id="Path_492" data-name="Path 492" d="M142.291,30.913l-.791.228c-.186-1.068-1.091-1.726-1.521-2.661l.76.171h0C141.018,29.579,142.063,29.97,142.291,30.913Z" transform="translate(-82.383 -4.006)" fill="#ebb23c"/>
      <path id="Path_493" data-name="Path 493" d="M134.545,36.14l.205.239c-.148.122-.266.027-.38-.057Z" transform="translate(-78.905 -8.754)" fill="#fff"/>
      <path id="Path_494" data-name="Path 494" d="M141.231,34.124c-.091-.057-.205-.1-.076-.224a1.175,1.175,0,0,1,.167.129Z" transform="translate(-83.075 -7.366)" fill="#fff"/>
      <path id="Path_495" data-name="Path 495" d="M141.541,34.24c.068.061.16.125.03.209,0,0-.08-.076-.122-.114Z" transform="translate(-83.294 -7.576)" fill="#fff"/>
      <path id="Path_496" data-name="Path 496" d="M143.55,31.2c-.228-.943-1.273-1.334-1.54-2.254h.555a12.515,12.515,0,0,1,2.262,2.7c-.03.209-.133.38-.316.152A1.521,1.521,0,0,0,143.55,31.2Z" transform="translate(-83.641 -4.297)" fill="#f7d54b"/>
      <path id="Path_497" data-name="Path 497" d="M147.37,41c-.156.513.049,1.049-.1,1.646C146.849,42.026,146.747,41.5,147.37,41Z" transform="translate(-86.69 -11.767)" fill="#fbfaf9"/>
      <path id="Path_498" data-name="Path 498" d="M84.987,29.1h4.984L88.6,28.056,93.7,53.088a1.437,1.437,0,0,0,1.376,1.045l14.769.019a1.426,1.426,0,0,0,0-2.851L95.08,51.282l1.372,1.045L91.362,27.3a1.437,1.437,0,0,0-1.376-1.045h-5a1.426,1.426,0,0,0,0,2.851Z" transform="translate(-47.442 -2.624)" fill="#f69320"/>
      <path id="Path_499" data-name="Path 499" d="M143.2,58.857H129.114l1.369,1.042-2.452-11.119-1.35,1.8h23.683l-1.232-2.144L137.759,71.6l1.232-.7H128.536a1.426,1.426,0,0,0,0,2.851H138.99a1.414,1.414,0,0,0,1.232-.707L151.6,49.878a1.445,1.445,0,0,0-1.232-2.148H126.681a1.445,1.445,0,0,0-1.376,1.806l2.452,11.119a1.441,1.441,0,0,0,1.376,1.049h14.088a1.426,1.426,0,0,0,0-2.851Z" transform="translate(-73.258 -15.938)" fill="#3bb54a"/>
      <rect id="Rectangle_1526" data-name="Rectangle 1526" width="21.162" height="1.844" rx="0.922" transform="translate(15.934 31.016)" fill="#3bb54a"/>
      <rect id="Rectangle_1527" data-name="Rectangle 1527" width="20.239" height="1.844" rx="0.922" transform="translate(13.862 37.418)" fill="#3bb54a"/>
      <rect id="Rectangle_1528" data-name="Rectangle 1528" width="23.018" height="1.844" rx="0.922" transform="translate(16.766 43.975)" fill="#3bb54a"/>
      <rect id="Rectangle_1529" data-name="Rectangle 1529" width="11.514" height="1.844" rx="0.922" transform="translate(27.897 40.546)" fill="#606161"/>
      <rect id="Rectangle_1530" data-name="Rectangle 1530" width="15.004" height="1.844" rx="0.922" transform="translate(23.894 34.244)" fill="#606161"/>
    </g>
  </g>
</svg>
