<svg xmlns="http://www.w3.org/2000/svg" width="163" height="41.656" viewBox="0 0 163 41.656">
  <g id="paypal" transform="translate(0 -187.6)">
    <path id="Path_261" data-name="Path 261" d="M360.913,221.2h-8.8a1.719,1.719,0,0,0-1.294,1.035L347.2,245a.686.686,0,0,0,.776.776h4.657a.686.686,0,0,0,.776-.776l1.035-6.468a1.184,1.184,0,0,1,1.294-1.035h2.846q8.926,0,10.09-8.538a6.782,6.782,0,0,0-1.035-5.692,10.435,10.435,0,0,0-6.727-2.07m1.035,8.538c-.517,3.1-2.846,3.1-5.175,3.1h-1.552l1.035-5.951c0-.259.259-.517.776-.517h.517c1.552,0,3.1,0,3.881,1.035.517.259.517,1.035.517,2.329" transform="translate(-234.911 -22.733)" fill="#fff"/>
    <g id="Group_106" data-name="Group 106" transform="translate(48.9 198.467)">
      <path id="Path_262" data-name="Path 262" d="M164.913,221.2h-8.8a1.719,1.719,0,0,0-1.294,1.035L151.2,245a.686.686,0,0,0,.776.776h4.14a1.719,1.719,0,0,0,1.294-1.035l1.035-6.21a1.184,1.184,0,0,1,1.294-1.035h2.846q8.926,0,10.09-8.538a6.782,6.782,0,0,0-1.035-5.692,9.945,9.945,0,0,0-6.727-2.07m1.035,8.538c-.517,3.1-2.846,3.1-5.175,3.1h-1.294l1.035-5.951c0-.259.259-.517.776-.517h.517c1.552,0,3.1,0,3.881,1.035a2.771,2.771,0,0,1,.259,2.329" transform="translate(-151.2 -221.2)" fill="#fff"/>
      <path id="Path_263" data-name="Path 263" d="M233.983,245.717h-4.14c-.259,0-.776.259-.776.517l-.259,1.294-.259-.517c-1.035-1.294-2.846-1.811-4.916-1.811a9.942,9.942,0,0,0-9.573,8.538,7.712,7.712,0,0,0,1.552,6.468c1.294,1.552,3.1,2.07,5.433,2.07A8.27,8.27,0,0,0,227,259.948l-.259,1.294a.686.686,0,0,0,.776.776H231.4a1.719,1.719,0,0,0,1.294-1.035l2.329-14.489c-.259-.259-.776-.776-1.035-.776M228.032,254a5,5,0,0,1-4.916,4.14,4.137,4.137,0,0,1-2.846-1.035,5.518,5.518,0,0,1-.776-3.1,4.615,4.615,0,0,1,7.5-3.1,4.517,4.517,0,0,1,1.035,3.1" transform="translate(-193.621 -237.438)" fill="#fff"/>
    </g>
    <path id="Path_264" data-name="Path 264" d="M429.183,245.717h-4.14c-.259,0-.776.259-.776.517l-.259,1.294-.259-.517c-1.035-1.294-2.846-1.811-4.916-1.811a9.942,9.942,0,0,0-9.573,8.538,7.712,7.712,0,0,0,1.552,6.468c1.294,1.552,3.1,2.07,5.433,2.07a8.27,8.27,0,0,0,5.951-2.329l-.259,1.294a.686.686,0,0,0,.776.776H426.6a1.719,1.719,0,0,0,1.294-1.035l2.329-14.489c-.259-.259-.517-.776-1.035-.776M423.232,254a5,5,0,0,1-4.916,4.14,4.137,4.137,0,0,1-2.846-1.035,5.518,5.518,0,0,1-.776-3.1,4.615,4.615,0,0,1,7.5-3.1,2.969,2.969,0,0,1,1.035,3.1" transform="translate(-276.791 -38.971)" fill="#fff"/>
    <path id="Path_265" data-name="Path 265" d="M303.922,246.8h-4.4a1.344,1.344,0,0,0-1.035.517l-5.692,8.8-2.587-8.279a1.2,1.2,0,0,0-1.294-.776h-4.14c-.517,0-.776.517-.776,1.035l4.657,13.713-4.4,6.21c-.259.517,0,1.294.517,1.294h4.14a1.344,1.344,0,0,0,1.035-.517l14.23-20.44c.776-.776.259-1.552-.259-1.552" transform="translate(-192.151 -40.054)" fill="#fff"/>
    <path id="Path_266" data-name="Path 266" d="M478.822,222.305,475.2,245.591a.686.686,0,0,0,.776.776H479.6a1.719,1.719,0,0,0,1.294-1.035l3.622-22.768a.686.686,0,0,0-.776-.776H479.6c-.259-.259-.517,0-.776.517" transform="translate(-321.514 -23.062)" fill="#fff"/>
    <path id="Path_267" data-name="Path 267" d="M29.754,190.7c-1.811-2.07-5.175-3.1-9.832-3.1H6.986a2.22,2.22,0,0,0-1.811,1.552L0,223.046a1.184,1.184,0,0,0,1.035,1.294H9.056l2.07-12.678v.517a2.22,2.22,0,0,1,1.811-1.552h3.881c7.5,0,13.2-3.1,15.006-11.643v-.776h0c.259-3.363-.259-5.433-2.07-7.5" fill="#263b80"/>
    <path id="Path_268" data-name="Path 268" d="M48.886,220.4h0v.776c-1.811,8.8-7.5,11.643-15.006,11.643H30a2.22,2.22,0,0,0-1.811,1.552L25.6,250.154a.948.948,0,0,0,1.035,1.035h6.727a1.449,1.449,0,0,0,1.552-1.294v-.259l1.294-8.021V241.1A1.449,1.449,0,0,1,37.76,239.8H38.8c6.468,0,11.643-2.587,12.937-10.349.517-3.1.259-5.951-1.294-7.762a2.65,2.65,0,0,0-1.552-1.294" transform="translate(-17.321 -22.192)" fill="#139ad6"/>
    <path id="Path_269" data-name="Path 269" d="M53.029,216.376c-.259,0-.517-.259-.776-.259a.95.95,0,0,1-.776-.259,13.669,13.669,0,0,0-3.363-.259H38.022a.95.95,0,0,0-.776.259,1.423,1.423,0,0,0-.776,1.294L34.4,230.606v.517a2.22,2.22,0,0,1,1.811-1.552h3.881c7.5,0,13.2-3.1,15.006-11.643a.95.95,0,0,1,.259-.776c-.517-.259-.776-.517-1.294-.517-.776-.259-.776-.259-1.035-.259" transform="translate(-23.275 -18.944)" fill="#fff"/>
  </g>
</svg>
