<svg xmlns="http://www.w3.org/2000/svg" width="31" height="31" viewBox="0 0 31 31">
  <g id="Inventory_Selected" data-name="Inventory Selected" transform="translate(-3.36 -3.51)">
    <circle id="Ellipse_54" data-name="Ellipse 54" cx="15.5" cy="15.5" r="15.5" transform="translate(3.36 3.51)" fill="#f19820"/>
    <path id="Path_372" data-name="Path 372" d="M132.273,65a1.584,1.584,0,0,0-1.583,1.565v.528h3.165v-.528A1.584,1.584,0,0,0,132.273,65Z" transform="translate(-105.661 -52.665)" fill="#fff"/>
    <path id="Path_373" data-name="Path 373" d="M132.884,127.46a.528.528,0,0,0,.5-.36l.935-2.84h-2.87l.935,2.84A.524.524,0,0,0,132.884,127.46Z" transform="translate(-106.272 -100.334)" fill="#fff"/>
    <path id="Path_374" data-name="Path 374" d="M130.69,81.13h3.165v7.382H130.69Z" transform="translate(-105.661 -65.64)" fill="#fff"/>
    <path id="Path_375" data-name="Path 375" d="M87.908,53.992a.528.528,0,0,0-.528.528V56.1h3.163V54.518a.526.526,0,0,0-.526-.528Z" transform="translate(-70.823 -43.809)" fill="#fff"/>
    <path id="Path_376" data-name="Path 376" d="M55.9,137.329h9.01a2.674,2.674,0,0,1-.538-1.582.52.52,0,0,0-.526-.526H55.376a.52.52,0,0,0-.526.526v.528A1.058,1.058,0,0,0,55.9,137.329Z" transform="translate(-44.656 -109.15)" fill="#fff"/>
    <path id="Path_377" data-name="Path 377" d="M75.792,76.324a1.635,1.635,0,0,0,1.51-1.641V59.908a.528.528,0,0,0-.526-.528H74.114v1.582a.528.528,0,0,1-.528.528H69.357a.526.526,0,0,1-.524-.528V59.38H66.158a.528.528,0,0,0-.528.528V73.161h6.892A1.583,1.583,0,0,1,74.1,74.743a1.583,1.583,0,0,0,1.688,1.581ZM71.467,64.161h3.149a.538.538,0,0,1,.542.5.528.528,0,0,1-.528.554H71.481a.538.538,0,0,1-.542-.5.528.528,0,0,1,.528-.554Zm3.691,3.717a.538.538,0,0,1-.542.5h-3.13a.538.538,0,0,1-.542-.5.528.528,0,0,1,.528-.552h3.163a.528.528,0,0,1,.528.552Zm-7.211-4.634a.538.538,0,0,1,.737.029l.671.671.673-.671a.538.538,0,0,1,.737-.029.528.528,0,0,1,.022.757l-1.054,1.056a.534.534,0,0,1-.374.155.526.526,0,0,1-.372-.155L67.93,64a.524.524,0,0,1,.018-.763Zm0,3.165a.536.536,0,0,1,.737.027l.671.671.673-.671a.536.536,0,0,1,.737-.027.528.528,0,0,1,.018.763L69.73,68.225a.526.526,0,0,1-.374.155.518.518,0,0,1-.372-.155L67.93,67.171a.524.524,0,0,1,.018-.763ZM69.73,71.39a.534.534,0,0,1-.374.155.526.526,0,0,1-.372-.155L67.94,70.346a.536.536,0,0,1-.027-.737.526.526,0,0,1,.763-.02l.681.683.673-.671a.538.538,0,0,1,.737-.029.53.53,0,0,1,.018.765Zm1.737.155a.528.528,0,0,1-.528-.554.536.536,0,0,1,.542-.5h3.13a.536.536,0,0,1,.542.5.528.528,0,0,1-.528.554Z" transform="translate(-53.328 -48.145)" fill="#fff"/>
  </g>
</svg>
