<svg xmlns="http://www.w3.org/2000/svg" width="32" height="32" viewBox="0 0 32 32">
  <g id="All_Branch_Selected" data-name="All Branch Selected" transform="translate(-2.5 -3.25)">
    <circle id="Ellipse_52" data-name="Ellipse 52" cx="16" cy="16" r="16" transform="translate(2.5 3.25)" fill="#f19820"/>
    <g id="Page-1" transform="translate(9 9.49)">
      <g id="_024---Location-Points" data-name="024---Location-Points">
        <path id="Shape" d="M59.78,75.384a12.277,12.277,0,0,1-.909-2.028,2.737,2.737,0,0,1-.982.2,2.784,2.784,0,1,1,0-5.566,2.7,2.7,0,0,1,.626.075,6.075,6.075,0,0,1,.239-.664,3.383,3.383,0,0,0-.842-.108,3.481,3.481,0,0,0-3.174,2.065A3.551,3.551,0,0,0,54.43,70.8,7.383,7.383,0,0,0,55.6,74.73c.024.039.045.069.067.1l.024.033A10.051,10.051,0,0,0,57.561,77v2.8h-.687a.347.347,0,0,0,0,.695h2.087a.347.347,0,1,0,0-.695h-.689V77a10.2,10.2,0,0,0,1.516-1.618Z" transform="translate(-54.43 -64.531)" fill="#fff"/>
        <path id="Shape-2" data-name="Shape" d="M87.485,56.308a5.218,5.218,0,0,0-9.975,2.159,10.878,10.878,0,0,0,1.72,5.785c.035.063.071.112.1.161l.033.047A14.8,14.8,0,0,0,82.381,67.8v3.483H81.336a.349.349,0,0,0,0,.7H84.12a.349.349,0,0,0,0-.7H83.075V67.808a14.753,14.753,0,0,0,3.015-3.337l.033-.051c.033-.049.067-.1.1-.149a10.878,10.878,0,0,0,1.726-5.8,5.216,5.216,0,0,0-.461-2.159ZM82.728,62.59A4.176,4.176,0,1,1,86.9,58.416a4.176,4.176,0,0,1-4.176,4.174Z" transform="translate(-72.979 -53.234)" fill="#fff"/>
        <path id="Shape-3" data-name="Shape" d="M131.574,69.317a3.479,3.479,0,0,0-3.169-2.077,3.4,3.4,0,0,0-.844.108A5.9,5.9,0,0,1,127.8,68a2.637,2.637,0,0,1,.589-.065,2.784,2.784,0,1,1-.936,5.4,12.369,12.369,0,0,1-.9,2.01,10.294,10.294,0,0,0,1.516,1.62v2.794h-.7a.347.347,0,1,0,0,.695h2.077a.347.347,0,1,0,0-.695h-.695v-2.8a10.012,10.012,0,0,0,1.873-2.124l.026-.039c.022-.035.043-.065.065-.1a7.393,7.393,0,0,0,1.178-3.926,3.534,3.534,0,0,0-.308-1.447Z" transform="translate(-112.392 -64.49)" fill="#fff"/>
      </g>
    </g>
  </g>
</svg>
