<svg xmlns="http://www.w3.org/2000/svg" width="32" height="32" viewBox="0 0 32 32">
  <g id="Bundle_Offer_Selected" data-name="Bundle Offer Selected" transform="translate(-3.22 -2)">
    <circle id="Ellipse_55" data-name="Ellipse 55" cx="16" cy="16" r="16" transform="translate(3.22 2)" fill="#f19820"/>
    <g id="Dairy_Product" data-name="Dairy Product" transform="translate(11.013 9.2)">
      <g id="Glyph">
        <path id="Path_378" data-name="Path 378" d="M62.14,84.29h4.839V85.9H62.14Z" transform="translate(-62.14 -78.909)" fill="#fff"/>
        <path id="Path_379" data-name="Path 379" d="M62.14,130.12v2.152a.539.539,0,0,0,.539.537h4.3V130.12Z" transform="translate(-62.14 -115.598)" fill="#fff"/>
        <path id="Path_380" data-name="Path 380" d="M114.365,95.607h1.324l-.164-.421a.269.269,0,0,0-.321-.162c-.742.2-.866-.75-.385-1a.265.265,0,0,0,.13-.335l-.457-1.141a.269.269,0,0,0-.251-.172H113.12Z" transform="translate(-102.952 -85.385)" fill="#fff"/>
        <path id="Path_381" data-name="Path 381" d="M89.537,79.527l2.792-7.559v-2.24L90.72,66.77,89.1,69.728v9.721a.227.227,0,0,0,.225.225A.223.223,0,0,0,89.537,79.527Z" transform="translate(-83.723 -64.883)" fill="#fff"/>
        <path id="Path_382" data-name="Path 382" d="M75.575,58.66H70.19v-.814a.537.537,0,0,1,.539-.537h4.308a.537.537,0,0,1,.539.537Z" transform="translate(-68.584 -57.31)" fill="#fff"/>
        <path id="Path_383" data-name="Path 383" d="M117.124,57.871v-.263a.267.267,0,0,0-.269-.267h-3.225a.269.269,0,0,0-.269.267v.263Z" transform="translate(-103.144 -57.334)" fill="#fff"/>
        <path id="Path_384" data-name="Path 384" d="M113.629,62.73h3.225a.267.267,0,0,1,.269.269h0a.267.267,0,0,1-.269.267h-3.225A.269.269,0,0,1,113.36,63h0A.269.269,0,0,1,113.629,62.73Z" transform="translate(-103.144 -61.649)" fill="#fff"/>
        <path id="Path_385" data-name="Path 385" d="M66.979,69.728H62.14l1.614-2.958h4.839Z" transform="translate(-62.14 -64.883)" fill="#fff"/>
        <path id="Path_386" data-name="Path 386" d="M96.706,97.212a.8.8,0,0,1,.02-1.568l-1.183-3.074a.271.271,0,0,0-.5,0L94.105,95a.273.273,0,0,0,.16.349.21.21,0,0,0,.048.012c.76.126.291,1.414-.381.985a.271.271,0,0,0-.373.086.226.226,0,0,0-.022.044l-.87,2.256a.269.269,0,0,0,.058.285.545.545,0,0,1-.347.9.269.269,0,0,0-.235.172l-.327.854a.271.271,0,0,0,.062.291,4.926,4.926,0,0,0,5.283,1.009Zm-1.677-.243a.8.8,0,1,1-.8.8A.8.8,0,0,1,95.029,96.969Zm-1.344,4.569a.805.805,0,1,0-.006,0Zm2.016-1.075a.68.68,0,1,0-.006,0Z" transform="translate(-85.882 -85.403)" fill="#fff"/>
        <path id="Path_387" data-name="Path 387" d="M62.14,95.08v6.452h4.839V95.08Zm.8,3.764a5.159,5.159,0,0,1,1.612-2.689,5.037,5.037,0,0,1,1.614,2.689c.01,1.929-3.215,2.214-3.215.01Z" transform="translate(-62.14 -87.547)" fill="#fff"/>
        <path id="Path_388" data-name="Path 388" d="M112.911,70.342c-.513-.4.624-.862.624-1.454a.768.768,0,0,0-.768-.768h-3.3a.766.766,0,0,0-.766.774c0,.62,1.171,1.033.622,1.454a2.9,2.9,0,0,0-1.109,1.757.271.271,0,0,0,.213.317.213.213,0,0,0,.05,0h1.835a.8.8,0,0,1,.752.513l1.2,3.08a.269.269,0,0,0,.251.172h1.3a.269.269,0,0,0,.267-.269V72.683a2.968,2.968,0,0,0-1.161-2.348Z" transform="translate(-99.018 -65.964)" fill="#fff"/>
        <path id="Path_389" data-name="Path 389" d="M122.243,111.25h-5.914a.269.269,0,1,0,0,.539h.293l.515,5.67a.267.267,0,0,0,.267.243h3.764a.269.269,0,0,0,.267-.243l.513-5.66h.3a.269.269,0,1,0,0-.539Z" transform="translate(-105.306 -100.492)" fill="#fff"/>
      </g>
    </g>
  </g>
</svg>
