<svg xmlns="http://www.w3.org/2000/svg" width="43" height="39.411" viewBox="0 0 43 39.411">
  <path id="buy" d="M41.233,28.514H7.613l-.5-5.567a1.766,1.766,0,0,0-1.759-1.608H1.766a1.766,1.766,0,1,0,0,3.532H3.739C4.818,36.885,2.031,5.83,5.77,47.5a6.794,6.794,0,0,0,2.543,4.6,5.353,5.353,0,1,0,9.25,1.472h9.665a5.354,5.354,0,1,0,5.034-3.532H12.542a3.279,3.279,0,0,1-3.015-1.988l28.222-1.659a1.766,1.766,0,0,0,1.61-1.335l3.588-14.352a1.767,1.767,0,0,0-1.713-2.194Zm-28.7,28.7A1.822,1.822,0,1,1,14.352,55.4,1.824,1.824,0,0,1,12.53,57.217Zm19.734,0A1.822,1.822,0,1,1,34.085,55.4,1.824,1.824,0,0,1,32.263,57.217Zm3.983-14.273-27.2,1.6L7.93,32.045H38.972Z" transform="translate(0 -21.338)" fill="#5d5a58"/>
</svg>
