<svg xmlns="http://www.w3.org/2000/svg" width="47.691" height="40" viewBox="0 0 47.691 40">
  <g id="delivery" transform="translate(0 -39.996)">
    <g id="Group_201" data-name="Group 201" transform="translate(3.846 69.227)">
      <g id="Group_200" data-name="Group 200">
        <path id="Path_284" data-name="Path 284" d="M43.846,344a3.846,3.846,0,1,0,3.846,3.846A3.851,3.851,0,0,0,43.846,344Zm0,6.154a2.308,2.308,0,1,1,2.308-2.308A2.31,2.31,0,0,1,43.846,350.15Z" transform="translate(-40 -343.996)" fill="#2d2d2d"/>
      </g>
    </g>
    <g id="Group_203" data-name="Group 203" transform="translate(33.077 69.227)">
      <g id="Group_202" data-name="Group 202">
        <path id="Path_285" data-name="Path 285" d="M347.846,344a3.846,3.846,0,1,0,3.846,3.846A3.851,3.851,0,0,0,347.846,344Zm0,6.154a2.308,2.308,0,1,1,2.308-2.308A2.311,2.311,0,0,1,347.846,350.15Z" transform="translate(-344 -343.996)" fill="#2d2d2d"/>
      </g>
    </g>
    <g id="Group_205" data-name="Group 205" transform="translate(0 39.996)">
      <g id="Group_204" data-name="Group 204">
        <path id="Path_286" data-name="Path 286" d="M46.923,46.15H31.538a.77.77,0,0,0-.769.769V61.985l-1.088,1.088H27.608a5.367,5.367,0,0,0,1.623-3.846V53.842a5.392,5.392,0,0,0-3.742-5.126,4.609,4.609,0,0,0,1.365-2.566h.069a.77.77,0,0,0,.769-.769,5.385,5.385,0,0,0-10.769,0,.77.77,0,0,0,.769.769h.069A4.622,4.622,0,0,0,20.2,49.481l-.741.741a.767.767,0,0,0-.225.544v3.077H15.307a3.853,3.853,0,0,0-3.768-3.077h-.769V47.688H9.231v3.077H8.462a.77.77,0,0,0-.769.769v.428a3.045,3.045,0,0,0-1.538-.428H4.615a.77.77,0,0,0-.769.769v4.615a.77.77,0,0,0,.769.769H6.154a3.045,3.045,0,0,0,1.538-.428V62.3H4.615A4.62,4.62,0,0,0,0,66.919a.77.77,0,0,0,.769.769H3.351a6.919,6.919,0,1,0,11.086,6.923H30.114A6.913,6.913,0,0,0,43.051,76.15h3.872a.77.77,0,0,0,.769-.769V72.3a.77.77,0,0,0-.769-.769H43.6a6.932,6.932,0,0,0-2.4-3.846h.338a3.036,3.036,0,0,0,1.553-.436l2.518,2.518L46.7,68.683l-2.518-2.518a2.986,2.986,0,0,0-.01-3.124,3.839,3.839,0,0,0,3.523-3.814V46.919A.768.768,0,0,0,46.923,46.15ZM43.782,73.073h2.372v1.538H43.6A6.9,6.9,0,0,0,43.782,73.073ZM18.538,44.611a3.847,3.847,0,0,1,7.538,0Zm.789,1.538h5.959A3.062,3.062,0,0,1,21.751,48.4a2.284,2.284,0,0,0,.556-1.485H20.769a.763.763,0,0,1-.533.722A3.076,3.076,0,0,1,19.328,46.15Zm-13.174,10H5.385V53.073h.769a1.538,1.538,0,1,1,0,3.077Zm-4.518,10a3.083,3.083,0,0,1,2.98-2.308H8.462a.77.77,0,0,0,.769-.769V52.3h2.308a2.3,2.3,0,0,1,2.17,1.552,2.292,2.292,0,0,0-1.4,4v10.07A6.889,6.889,0,0,0,7.692,66.15ZM7.692,78.457a5.385,5.385,0,1,1,5.385-5.385A5.391,5.391,0,0,1,7.692,78.457ZM13.077,56.15a.77.77,0,0,1,.769-.769H20a.77.77,0,0,0,.769-.769V51.084L21.857,50h1.989a3.851,3.851,0,0,1,3.846,3.846v5.385a3.851,3.851,0,0,1-3.846,3.846H20.769a2.311,2.311,0,0,0-2.308,2.308V70H16.923V65.381a3.851,3.851,0,0,1,3.846-3.846h.769a.77.77,0,0,0,.769-.769V58.316a2.3,2.3,0,0,0,1.538-2.166V53.073H22.308V56.15a.77.77,0,0,1-.769.769H13.846A.77.77,0,0,1,13.077,56.15ZM20,67.547a2.282,2.282,0,0,0,.769.142h8.912L27.374,70H20Zm-6.154,1.68V58.458h6.923V60a5.391,5.391,0,0,0-5.385,5.385V70h-.769A.77.77,0,0,1,13.846,69.227Zm16.089,3.846H14.615a6.882,6.882,0,0,0-.183-1.557c.062,0,.12.018.183.018H27.692a.769.769,0,0,0,.544-.225l3.621-3.621h.66A6.91,6.91,0,0,0,29.935,73.073Zm12.308,0a5.385,5.385,0,1,1-5.385-5.385A5.391,5.391,0,0,1,42.243,73.073Zm-.7-6.923H20.769a.769.769,0,1,1,0-1.538H30a.769.769,0,0,0,.544-.225l1.313-1.313h9.682a1.538,1.538,0,1,1,0,3.077Zm4.615-6.923a2.311,2.311,0,0,1-2.308,2.308H32.308V50.765H46.154Zm0-10H32.308V47.688H46.154Z" transform="translate(0 -39.996)" fill="#2d2d2d"/>
      </g>
    </g>
    <g id="Group_207" data-name="Group 207" transform="translate(33.846 58.457)">
      <g id="Group_206" data-name="Group 206">
        <rect id="Rectangle_93" data-name="Rectangle 93" width="4" height="2" transform="translate(-0.147 -0.461)" fill="#2d2d2d"/>
      </g>
    </g>
    <g id="Group_209" data-name="Group 209" transform="translate(33.846 55.381)">
      <g id="Group_208" data-name="Group 208">
        <rect id="Rectangle_94" data-name="Rectangle 94" width="6" height="2" transform="translate(-0.147 -0.385)" fill="#2d2d2d"/>
      </g>
    </g>
    <g id="Group_211" data-name="Group 211" transform="translate(33.846 52.304)">
      <g id="Group_210" data-name="Group 210">
        <rect id="Rectangle_95" data-name="Rectangle 95" width="9" height="2" transform="translate(-0.147 -0.308)" fill="#2d2d2d"/>
      </g>
    </g>
    <g id="Group_213" data-name="Group 213" transform="translate(27.692 39.996)">
      <g id="Group_212" data-name="Group 212">
        <rect id="Rectangle_96" data-name="Rectangle 96" width="7" height="2" transform="translate(0.007)" fill="#2d2d2d"/>
      </g>
    </g>
    <g id="Group_215" data-name="Group 215" transform="translate(36.154 39.996)">
      <g id="Group_214" data-name="Group 214">
        <rect id="Rectangle_97" data-name="Rectangle 97" width="2" height="2" transform="translate(-0.454)" fill="#2d2d2d"/>
      </g>
    </g>
    <g id="Group_217" data-name="Group 217" transform="translate(39.231 39.996)">
      <g id="Group_216" data-name="Group 216">
        <rect id="Rectangle_98" data-name="Rectangle 98" width="1" height="2" transform="translate(0.469)" fill="#2d2d2d"/>
      </g>
    </g>
    <g id="Group_219" data-name="Group 219" transform="translate(42.308 39.996)">
      <g id="Group_218" data-name="Group 218">
        <rect id="Rectangle_99" data-name="Rectangle 99" width="1" height="2" transform="translate(0.392)" fill="#2d2d2d"/>
      </g>
    </g>
    <g id="Group_221" data-name="Group 221" transform="translate(30.769 43.073)">
      <g id="Group_220" data-name="Group 220">
        <rect id="Rectangle_100" data-name="Rectangle 100" width="7" height="2" transform="translate(-0.07 -0.077)" fill="#2d2d2d"/>
      </g>
    </g>
    <g id="Group_223" data-name="Group 223" transform="translate(39.231 43.073)">
      <g id="Group_222" data-name="Group 222">
        <rect id="Rectangle_101" data-name="Rectangle 101" width="1" height="2" transform="translate(0.469 -0.077)" fill="#2d2d2d"/>
      </g>
    </g>
    <g id="Group_225" data-name="Group 225" transform="translate(42.308 43.073)">
      <g id="Group_224" data-name="Group 224">
        <rect id="Rectangle_102" data-name="Rectangle 102" width="1" height="2" transform="translate(0.392 -0.077)" fill="#2d2d2d"/>
      </g>
    </g>
    <g id="Group_227" data-name="Group 227" transform="translate(45.385 43.073)">
      <g id="Group_226" data-name="Group 226">
        <rect id="Rectangle_103" data-name="Rectangle 103" width="1" height="2" transform="translate(0.315 -0.077)" fill="#2d2d2d"/>
      </g>
    </g>
  </g>
</svg>
