<svg xmlns="http://www.w3.org/2000/svg" width="29.112" height="29.112" viewBox="0 0 29.112 29.112">
  <g id="explorer" transform="translate(-0.001)">
    <path id="Path_250" data-name="Path 250" d="M14.556,0A14.556,14.556,0,1,0,29.113,14.556,14.572,14.572,0,0,0,14.556,0Zm0,26.79A12.235,12.235,0,1,1,26.791,14.556,12.248,12.248,0,0,1,14.556,26.79Z" transform="translate(0)" fill="#f29700"/>
    <path id="Path_251" data-name="Path 251" d="M57.537,50.851a6.686,6.686,0,1,0,6.687,6.686A6.694,6.694,0,0,0,57.537,50.851Zm0,11.051A4.365,4.365,0,1,1,61.9,57.537,4.37,4.37,0,0,1,57.537,61.9Z" transform="translate(-42.981 -42.981)" fill="#f29700"/>
    <circle id="Ellipse_2" data-name="Ellipse 2" cx="2.512" cy="2.512" r="2.512" transform="translate(12.045 12.044)" fill="#f29700"/>
  </g>
</svg>
