<svg xmlns="http://www.w3.org/2000/svg" width="32" height="32" viewBox="0 0 32 32">
  <g id="Add_Branch_Selected" data-name="Add Branch Selected" transform="translate(-3.5 -4.32)">
    <circle id="Ellipse_49" data-name="Ellipse 49" cx="16" cy="16" r="16" transform="translate(3.5 4.32)" fill="#f19820"/>
    <path id="Path_351" data-name="Path 351" d="M104.588,67.827a.66.66,0,0,0,.658-.658V66.51H103.93v.658A.66.66,0,0,0,104.588,67.827Z" transform="translate(-84.46 -52.301)" fill="#fff"/>
    <path id="Path_352" data-name="Path 352" d="M79.738,67.827a.66.66,0,0,0,.66-.658V66.51H79.08v.658A.66.66,0,0,0,79.738,67.827Z" transform="translate(-63.562 -52.301)" fill="#fff"/>
    <path id="Path_353" data-name="Path 353" d="M92.168,67.827a.66.66,0,0,0,.658-.658V66.51H91.51v.658A.658.658,0,0,0,92.168,67.827Z" transform="translate(-74.015 -52.301)" fill="#fff"/>
    <path id="Path_354" data-name="Path 354" d="M67.318,67.827a.658.658,0,0,0,.658-.658V66.51H66.66v.658A.66.66,0,0,0,67.318,67.827Z" transform="translate(-53.117 -52.301)" fill="#fff"/>
    <path id="Path_355" data-name="Path 355" d="M58.38,47.88H72.214v.655H58.38Z" transform="translate(-46.153 -36.633)" fill="#fff"/>
    <path id="Path_356" data-name="Path 356" d="M55.23,57.147H71.06l-.423-.987H55.653Z" transform="translate(-43.983 -43.597)" fill="#fff"/>
    <path id="Path_357" data-name="Path 357" d="M60.026,83.118a.329.329,0,0,1,.329-.329h4.611a.329.329,0,0,1,.329.329v4.939h4.452c-.964-1.3-2.147-3.121-2.147-4.281A3.592,3.592,0,0,1,68,82.13H59.367a.329.329,0,0,1-.329-.329v-3.95a.331.331,0,0,1,.329-.331H71.22a.331.331,0,0,1,.329.331v2.32a3.437,3.437,0,0,1,.658.126V76.533a1.3,1.3,0,0,1-.988-.453,1.3,1.3,0,0,1-1.835.14,1.451,1.451,0,0,1-.14-.14,1.3,1.3,0,0,1-1.835.14,1.469,1.469,0,0,1-.142-.14,1.307,1.307,0,0,1-1.975,0,1.3,1.3,0,0,1-1.835.146,1.454,1.454,0,0,1-.14-.14,1.3,1.3,0,0,1-1.835.14,1.47,1.47,0,0,1-.142-.14,1.307,1.307,0,0,1-1.975,0,1.3,1.3,0,0,1-.987.453V88.057h1.646Z" transform="translate(-46.153 -60.349)" fill="#fff"/>
    <path id="Path_358" data-name="Path 358" d="M117.008,67.827a.658.658,0,0,0,.658-.658V66.51H116.35v.658A.66.66,0,0,0,117.008,67.827Z" transform="translate(-94.905 -52.301)" fill="#fff"/>
    <path id="Path_359" data-name="Path 359" d="M141.2,67.168a.658.658,0,0,0,1.317,0V66.51H141.2Z" transform="translate(-115.804 -52.301)" fill="#fff"/>
    <path id="Path_360" data-name="Path 360" d="M129.438,67.827a.66.66,0,0,0,.658-.658V66.51H128.78v.658A.658.658,0,0,0,129.438,67.827Z" transform="translate(-105.359 -52.301)" fill="#fff"/>
    <path id="Path_361" data-name="Path 361" d="M54.24,67.168a.658.658,0,0,0,1.317,0V66.51H54.24Z" transform="translate(-42.672 -52.301)" fill="#fff"/>
    <circle id="Ellipse_50" data-name="Ellipse 50" cx="0.987" cy="0.987" r="0.987" transform="translate(24.08 22.44)" fill="#fff"/>
    <path id="Path_362" data-name="Path 362" d="M75.391,92.583a3.619,3.619,0,0,1,2.463-1.3V89.29H66.66v3.293Z" transform="translate(-53.117 -71.459)" fill="#fff"/>
    <path id="Path_363" data-name="Path 363" d="M146.922,152.831v-.121l-.092.121Z" transform="translate(-120.538 -124.794)" fill="#fff"/>
    <path id="Path_364" data-name="Path 364" d="M128.685,158.825c1.272,0,1.935-.361,1.975-.5-.029-.089-.45-.35-1.3-.445-.234.286-.394.477-.425.5a.328.328,0,0,1-.464.029.123.123,0,0,1-.029-.029c-.03-.033-.192-.218-.426-.5-.852.1-1.272.356-1.3.458C126.756,158.464,127.421,158.825,128.685,158.825Z" transform="translate(-103.618 -129.142)" fill="#fff"/>
    <path id="Path_365" data-name="Path 365" d="M123.454,105.85a2.969,2.969,0,0,0-2.964,2.962c0,1.272,1.953,3.877,2.964,5.088,1.011-1.215,2.962-3.816,2.962-5.088A2.967,2.967,0,0,0,123.454,105.85Zm0,4.611a1.647,1.647,0,1,1,1.646-1.647,1.647,1.647,0,0,1-1.646,1.647Z" transform="translate(-98.387 -85.385)" fill="#fff"/>
    <path id="Path_366" data-name="Path 366" d="M89.016,127.011V122.4H87.37v4.611ZM87.7,124.378h.658v.661H87.7Z" transform="translate(-70.533 -99.304)" fill="#fff"/>
    <path id="Path_367" data-name="Path 367" d="M74.516,127.011V122.4H72.87v4.611Zm-.989-2.633h.658v.661h-.658Z" transform="translate(-58.339 -99.304)" fill="#fff"/>
  </g>
</svg>
