<svg xmlns="http://www.w3.org/2000/svg" width="32" height="32" viewBox="0 0 32 32">
  <g id="All_Offers_Selected" data-name="All Offers Selected" transform="translate(-2.57 -2.76)">
    <circle id="Ellipse_62" data-name="Ellipse 62" cx="16" cy="16" r="16" transform="translate(2.57 2.76)" fill="#f19820"/>
    <path id="Path_400" data-name="Path 400" d="M116.13,61.2H113.7V58.77Z" transform="translate(-91.948 -48.253)" fill="#fff"/>
    <path id="Path_401" data-name="Path 401" d="M68.022,71.023,67.2,70.2l.43-.43.392.392,1.3-1.3.428.43Z" transform="translate(-54.256 -56.432)" fill="#fff"/>
    <path id="Path_402" data-name="Path 402" d="M68.022,93.473l-.822-.822.43-.43.392.392,1.3-1.3.428.43Z" transform="translate(-54.256 -74.63)" fill="#fff"/>
    <path id="Path_403" data-name="Path 403" d="M68.022,115.913l-.822-.822.43-.43.392.394,1.3-1.305.428.426Z" transform="translate(-54.256 -92.819)" fill="#fff"/>
    <path id="Path_404" data-name="Path 404" d="M69.931,71.549h-5.58v-.608h5.93a4.277,4.277,0,0,1,1.663-1.405V61.831h-3.03V58.8H59.19V73.074H69.53a4.167,4.167,0,0,1,.4-1.525Zm-5.58-9.113h6.074v.608H64.351Zm0,4.252h6.074V67.3H64.351ZM63.44,71.85H60.41V68.82h3.03Zm0-4.25H60.41V64.569h3.03Zm0-4.252H60.41V60.317h3.03Z" transform="translate(-47.763 -48.278)" fill="#fff"/>
    <path id="Path_405" data-name="Path 405" d="M128.662,135.041h2.273l.3-.911h-2.76Z" transform="translate(-103.929 -109.339)" fill="#fff"/>
    <path id="Path_406" data-name="Path 406" d="M120.554,116.49a3.644,3.644,0,1,0,3.644,3.644A3.644,3.644,0,0,0,120.554,116.49Zm2.04,3.031-.606,1.822h-.828v.608h-.606v-.608h-.608v.608h-.608v-.608h-.551l-.36-1.822v-.606h.608v.3h3.03l.1-.3H123.3v.606Z" transform="translate(-94.55 -95.04)" fill="#fff"/>
  </g>
</svg>
