<svg xmlns="http://www.w3.org/2000/svg" width="47.753" height="37" viewBox="0 0 47.753 37">
  <g id="XMLID_1321_" transform="translate(0 -57.647)">
    <g id="XMLID_396_" transform="translate(0 57.647)">
      <path id="XMLID_429_" d="M47.453,70.222l-1.244-2.154A.933.933,0,1,0,44.594,69l1.244,2.154a.364.364,0,0,1-.133.5l-3.289,1.9a.365.365,0,0,1-.5-.133L35.3,61.957a.365.365,0,0,1,.133-.5l3.289-1.9a.365.365,0,0,1,.5.133L40.4,61.731a.933.933,0,0,0,1.615-.933l-1.176-2.037a2.232,2.232,0,0,0-3.045-.816l-3.289,1.9A2.221,2.221,0,0,0,33.493,61.1H24.169A4.87,4.87,0,0,0,20.7,62.533l-.955.955a11.033,11.033,0,0,0-2.559-.3h-2.9a2.223,2.223,0,0,0-1.042-1.372l-3.289-1.9a2.229,2.229,0,0,0-3.045.816L.3,72.192a2.229,2.229,0,0,0,.816,3.045l3.289,1.9a2.215,2.215,0,0,0,1.111.3,2.244,2.244,0,0,0,.409-.038l2.692,2.692a3.392,3.392,0,0,0-.063.649,3.351,3.351,0,0,0,3.169,3.348,3.407,3.407,0,0,0-.019.354,3.355,3.355,0,0,0,3.355,3.355l.073,0c0,.024,0,.048,0,.073a3.355,3.355,0,0,0,3.355,3.355l.073,0c0,.024,0,.048,0,.073a3.355,3.355,0,0,0,5.728,2.372l1.327-1.327A3.334,3.334,0,0,0,26.43,91a3.358,3.358,0,0,0,5.2-1.705,3.357,3.357,0,0,0,5.117-2.135,3.356,3.356,0,0,0,3.43-5.557L38,79.422l3.973-3.973a2.244,2.244,0,0,0,.266.017,2.216,2.216,0,0,0,1.111-.3l3.289-1.9a2.229,2.229,0,0,0,.816-3.045Zm-45.4,3.4a.364.364,0,0,1-.133-.5L8.532,61.664a.362.362,0,0,1,.221-.17.374.374,0,0,1,.1-.012.359.359,0,0,1,.181.049l3.289,1.9a.365.365,0,0,1,.133.5L5.835,75.388a.365.365,0,0,1-.5.133Zm8.372,7.116a1.48,1.48,0,0,1,.436-1.054l.8-.8a1.49,1.49,0,1,1,2.107,2.107l-.8.8a1.49,1.49,0,0,1-2.544-1.053Zm4.64,5.192a1.49,1.49,0,0,1-1.054-2.543l1.327-1.327a1.49,1.49,0,1,1,2.107,2.107l-1.327,1.327A1.48,1.48,0,0,1,15.06,85.93Zm3.426,3.426a1.49,1.49,0,0,1-1.054-2.543l1.327-1.327a1.49,1.49,0,1,1,2.107,2.107l-1.327,1.327A1.48,1.48,0,0,1,18.486,89.356Zm5.806,1.663-1.327,1.327a1.49,1.49,0,1,1-2.107-2.107l1.327-1.327a1.49,1.49,0,1,1,2.107,2.107Zm14.563-5.994a1.49,1.49,0,0,1-2.107,0l-8.9-8.9a.933.933,0,0,0-1.319,1.319l7.983,7.984A1.49,1.49,0,1,1,32.4,87.532L22.81,77.939a.933.933,0,1,0-1.319,1.319l7.983,7.983a1.49,1.49,0,1,1-2.107,2.107l-1.756-1.756-.008-.007a3.345,3.345,0,0,0-2.438-.972c0-.025,0-.049,0-.074a3.351,3.351,0,0,0-3.428-3.352c0-.025,0-.049,0-.074a3.353,3.353,0,0,0-3.676-3.338,3.355,3.355,0,0,0-5.724-2.215l-.8.8,0,0L7.463,76.3l6.492-11.245h3.233a9.159,9.159,0,0,1,.947.049l-1.066,1.066a3.355,3.355,0,0,0,4.745,4.745l2.518-2.518L38.855,82.918a1.492,1.492,0,0,1,0,2.107ZM29.894,71.319a5.293,5.293,0,0,0,2.189-4.289.933.933,0,1,0-1.865,0,3.427,3.427,0,0,1-1.67,2.943L25,66.42a.932.932,0,0,0-1.318-.01L20.5,69.593a1.49,1.49,0,1,1-2.107-2.107l3.634-3.634a3.016,3.016,0,0,1,2.147-.889h9.559L40.3,74.351c.016.027.033.053.049.079L36.678,78.1Z" transform="translate(0 -57.647)" fill="#2d2d2d"/>
      <path id="XMLID_436_" d="M455.241,127.279a.933.933,0,1,0-.659-.273A.941.941,0,0,0,455.241,127.279Z" transform="translate(-411.937 -119.094)" fill="#2d2d2d"/>
    </g>
  </g>
</svg>
