<svg xmlns="http://www.w3.org/2000/svg" width="32" height="32" viewBox="0 0 32 32">
  <g id="Compete_Order_Selected" data-name="Compete Order Selected" transform="translate(-3.22 -3)">
    <circle id="Ellipse_57" data-name="Ellipse 57" cx="16" cy="16" r="16" transform="translate(3.22 3)" fill="#f19820"/>
    <path id="Path_393" data-name="Path 393" d="M65.728,70.78h9.513a4.47,4.47,0,0,1,3.568-8.115V56.731H76.574a1.6,1.6,0,0,1-1.6-1.6V52.9h-9.25a.96.96,0,0,0-.958.958V69.822A.96.96,0,0,0,65.728,70.78Zm5.747-2.554H70.2a.319.319,0,1,1,0-.639h1.277a.319.319,0,1,1,0,.639Zm0-1.916H69.559a.319.319,0,1,1,0-.639h1.916a.319.319,0,0,1,0,.639Zm2.554-3.831H71.475a.319.319,0,1,1,0-.639h2.554a.319.319,0,1,1,0,.639Zm3.193-1.916H74.029a.319.319,0,0,1,0-.639h3.193a.319.319,0,1,1,0,.639Zm0-2.554a.319.319,0,1,1,0,.639H69.559a.319.319,0,1,1,0-.639ZM66.366,56.093H70.2a.319.319,0,0,1,0,.639H66.366a.319.319,0,0,1,0-.639Zm0,1.916h1.916a.319.319,0,1,1,0,.639H66.366a.319.319,0,0,1,0-.639Zm0,1.916h6.386a.319.319,0,1,1,0,.639H66.366a.319.319,0,0,1,0-.639Zm0,1.916H70.2a.319.319,0,1,1,0,.639H66.366a.319.319,0,0,1,0-.639Zm0,1.916h5.747a.319.319,0,1,1,0,.639H66.366a.319.319,0,0,1,0-.639Zm0,1.916h1.916a.319.319,0,1,1,0,.639H66.366a.319.319,0,0,1,0-.639Zm0,1.916h2.554a.319.319,0,0,1,0,.639H66.366a.319.319,0,0,1,0-.639Zm7.344-.639a3.831,3.831,0,1,0,3.831-3.831A3.831,3.831,0,0,0,73.71,66.948Zm5.924-1.861a.317.317,0,0,1,.088.441h0L77.168,69.36a.316.316,0,0,1-.233.141H76.9a.319.319,0,0,1-.225-.094L75.4,68.13a.319.319,0,0,1,.451-.451l1,1,2.338-3.506a.316.316,0,0,1,.441-.086Zm-4.008-9.954v-1.78l2.742,2.74H76.583a.958.958,0,0,1-.958-.958Z" transform="translate(-53.553 -42.9)" fill="#fff"/>
  </g>
</svg>
