<svg xmlns="http://www.w3.org/2000/svg" width="32" height="32" viewBox="0 0 32 32">
  <g id="Offer_Selected" data-name="Offer Selected" transform="translate(-2.43 -3.24)">
    <circle id="Ellipse_59" data-name="Ellipse 59" cx="16" cy="16" r="16" transform="translate(2.43 3.24)" fill="#f19820"/>
    <path id="Path_397" data-name="Path 397" d="M96.585,85.876l-.928-1.236-.515,3.6a1.538,1.538,0,0,1-.438.878L88.36,95.466a2.914,2.914,0,0,1-2.073.859,2.948,2.948,0,0,1-.687-.081,1.9,1.9,0,0,0,1.6.878H94.79a1.9,1.9,0,0,0,1.9-1.9v-9.04a.513.513,0,0,0-.1-.31Z" transform="translate(-70.392 -69.148)" fill="#fff"/>
    <ellipse id="Ellipse_60" data-name="Ellipse 60" cx="0.517" cy="0.517" rx="0.517" ry="0.517" transform="translate(18.793 17.873)" fill="#fff"/>
    <ellipse id="Ellipse_61" data-name="Ellipse 61" cx="0.517" cy="0.517" rx="0.517" ry="0.517" transform="translate(12.938 17.873)" fill="#fff"/>
    <path id="Path_398" data-name="Path 398" d="M60.891,73.669l6.343-6.341a.529.529,0,0,0,.146-.294l.732-5.123a.517.517,0,0,0-.146-.438l-1.1-1.1-1.463,1.463.365.367a.517.517,0,0,1-.732.73l-1.463-1.461a.517.517,0,1,1,.731-.732l.361.365,1.463-1.465-1.1-1.1a.517.517,0,0,0-.438-.146l-5.117.732a.529.529,0,0,0-.294.146L52.841,65.62a1.9,1.9,0,0,0,0,2.683l5.366,5.366a1.9,1.9,0,0,0,2.683,0Zm2.075-8.747a1.554,1.554,0,1,1-1.554,1.552A1.554,1.554,0,0,1,62.966,64.922ZM57.11,68.027a1.554,1.554,0,1,1,1.552-1.554A1.554,1.554,0,0,1,57.11,68.027Zm1.708,2.624a.484.484,0,0,1-.164-.028.517.517,0,0,1-.328-.659l2.44-7.3a.52.52,0,0,1,.987.326L59.309,70.3a.521.521,0,0,1-.492.353Z" transform="translate(-43.655 -48.084)" fill="#fff"/>
    <path id="Path_399" data-name="Path 399" d="M124.27,59.276a.518.518,0,1,0-.732-.732l-1.1,1.1.732.732Z" transform="translate(-99.959 -48.081)" fill="#fff"/>
  </g>
</svg>
