<svg xmlns="http://www.w3.org/2000/svg" width="32" height="32" viewBox="0 0 32 32">
  <g id="Issue_Selcted" data-name="Issue Selcted" transform="translate(-3.22 -3)">
    <circle id="Ellipse_72" data-name="Ellipse 72" cx="16" cy="16" r="16" transform="translate(3.22 3)" fill="#f19820"/>
    <g id="Page-1" transform="translate(12.461 11.696)">
      <g id="_070---Laptop-Message-Not-Sent" data-name="070---Laptop-Message-Not-Sent">
        <path id="Shape" d="M97.07,97.042a4.608,4.608,0,0,0,3.412-3.417A4.669,4.669,0,0,0,100.339,91L94.42,96.908a4.647,4.647,0,0,0,2.65.149Z" transform="translate(-88.694 -85.255)" fill="#fff"/>
        <path id="Shape-2" data-name="Shape" d="M81.856,72.4a4.6,4.6,0,0,0-1.562-.274,4.759,4.759,0,0,0-1.088.126,4.6,4.6,0,0,0-3.412,3.413,4.652,4.652,0,0,0,.141,2.635Z" transform="translate(-73.019 -69.481)" fill="#fff"/>
        <path id="Shape-3" data-name="Shape" d="M66.81,70.552a7.281,7.281,0,1,0-7.28-7.281,7.282,7.282,0,0,0,7.28,7.281Zm4.646-10.13a1.336,1.336,0,0,1,.967.855,5.947,5.947,0,0,1-4.216,7.785,6.15,6.15,0,0,1-1.4.164,5.925,5.925,0,0,1-1.994-.345,1.334,1.334,0,0,1-.852-.966,1.313,1.313,0,0,1,.354-1.224l5.908-5.908A1.313,1.313,0,0,1,71.455,60.422ZM61.2,65.262a5.949,5.949,0,0,1,7.6-7.6,1.336,1.336,0,0,1,.855.967,1.313,1.313,0,0,1-.356,1.224l-5.908,5.908a1.313,1.313,0,0,1-.932.389,1.341,1.341,0,0,1-1.257-.889Z" transform="translate(-59.53 -55.99)" fill="#fff"/>
      </g>
    </g>
  </g>
</svg>
