<svg xmlns="http://www.w3.org/2000/svg" width="39.411" height="39.411" viewBox="0 0 39.411 39.411">
  <g id="account_1_" data-name="account (1)" transform="translate(0)">
    <path id="Path_245" data-name="Path 245" d="M35.647,31.29a19.706,19.706,0,1,0-31.884,0,19.717,19.717,0,0,1,31.884,0ZM12.778,11.623a6.928,6.928,0,0,1,13.856,0v2.309a6.928,6.928,0,0,1-13.856,0Zm0,0" fill="#f29700"/>
    <path id="Path_246" data-name="Path 246" d="M200.619,102.541a4.623,4.623,0,0,0,4.618-4.618V95.614a4.619,4.619,0,0,0-9.237,0v2.309A4.623,4.623,0,0,0,200.619,102.541Zm0,0" transform="translate(-180.913 -83.991)" fill="#f29700"/>
    <path id="Path_247" data-name="Path 247" d="M68.758,338.748a19.7,19.7,0,0,0,28.831-.006A17.406,17.406,0,0,0,68.758,338.748Zm0,0" transform="translate(-63.465 -305.608)" fill="#f29700"/>
  </g>
</svg>
