<svg xmlns="http://www.w3.org/2000/svg" width="14.5" height="19.334" viewBox="0 0 14.5 19.334">
  <g id="sort" transform="translate(-14 -8)">
    <path id="Path_274" data-name="Path 274" d="M21.014,11.056l-2.82-2.82a.805.805,0,0,0-1.139,0l-2.82,2.82a.805.805,0,0,0,1.139,1.139L16.82,10.75V26.529a.806.806,0,0,0,1.611,0V10.75l1.444,1.444a.805.805,0,1,0,1.139-1.139Z" transform="translate(0 0)" fill="#fff"/>
    <path id="Path_275" data-name="Path 275" d="M39.014,23.14a.805.805,0,0,0-1.139,0l-1.444,1.444V8.806a.806.806,0,1,0-1.611,0V24.584L33.375,23.14a.805.805,0,0,0-1.139,1.139l2.82,2.82a.805.805,0,0,0,1.139,0l2.82-2.82a.805.805,0,0,0,0-1.139Z" transform="translate(-10.75)" fill="#fff"/>
  </g>
</svg>
