<svg xmlns="http://www.w3.org/2000/svg" width="32" height="32" viewBox="0 0 32 32">
  <g id="Add_Manager_Selected" data-name="Add Manager Selected" transform="translate(-3.15 -3.5)">
    <circle id="Ellipse_51" data-name="Ellipse 51" cx="16" cy="16" r="16" transform="translate(3.15 3.5)" fill="#f19820"/>
    <path id="Path_368" data-name="Path 368" d="M119.383,98.08a4.063,4.063,0,1,0,4.063,4.063A4.063,4.063,0,0,0,119.383,98.08Zm1.172,4.611h-.625v.625a.547.547,0,0,1-1.095,0v-.625h-.625a.547.547,0,0,1,0-1.095h.625v-.625a.547.547,0,0,1,1.095,0v.625h.625a.547.547,0,1,1,0,1.095Z" transform="translate(-93.486 -78.718)" fill="#fff"/>
    <path id="Path_369" data-name="Path 369" d="M75.078,53.75a4.063,4.063,0,1,0,4.069,4.063,4.063,4.063,0,0,0-4.069-4.063" transform="translate(-57.636 -42.843)" fill="#fff"/>
    <path id="Path_370" data-name="Path 370" d="M72.784,95.845a5.908,5.908,0,0,0-1.533-1.535,5.144,5.144,0,0,1-6.544,0,5.818,5.818,0,0,0-2.546,4.811v2.051a2.015,2.015,0,0,0,2.013,2.013h7.619a1.983,1.983,0,0,0,1.287-.468,5.156,5.156,0,0,1-.288-6.872Z" transform="translate(-50.51 -75.684)" fill="#fff"/>
  </g>
</svg>
