<svg xmlns="http://www.w3.org/2000/svg" width="32" height="31" viewBox="0 0 32 31">
  <g id="Date_Time_Select" data-name="Date Time Select" transform="translate(-3.22 -4.32)">
    <ellipse id="Ellipse_48" data-name="Ellipse 48" cx="16" cy="15.5" rx="16" ry="15.5" transform="translate(3.22 4.32)" fill="#f19820"/>
    <path id="Path_348" data-name="Path 348" d="M65.868,47.486a1.31,1.31,0,0,0-.359-.907,1.2,1.2,0,0,0-.868-.376h-.306v.961a.627.627,0,0,1-.611.641H63.11a.628.628,0,0,0,.614-.64V45.244a.613.613,0,0,0-1.227,0V46.2H60.963v.961a.627.627,0,0,1-.606.641h-.614a.6.6,0,0,0,.434-.187.654.654,0,0,0,.18-.453V45.244a.613.613,0,0,0-1.227,0V46.2H57.281v.961a.654.654,0,0,1-.179.453.6.6,0,0,1-.434.188h-.614a.6.6,0,0,0,.434-.187.654.654,0,0,0,.18-.453V45.244a.613.613,0,0,0-1.227,0V46.2H53.908v.961a.629.629,0,0,1-.608.641h-.619a.6.6,0,0,0,.437-.185.654.654,0,0,0,.182-.455V45.244a.613.613,0,0,0-1.227,0V46.2h-.927a1.256,1.256,0,0,0-1.227,1.281v1.924H65.868Z" transform="translate(-39.7 -33.814)" fill="#fff"/>
    <path id="Path_349" data-name="Path 349" d="M126.156,117.12a3.516,3.516,0,1,0,3.516,3.516A3.516,3.516,0,0,0,126.156,117.12Zm0,4.164a.633.633,0,0,1-.233-.045l-1.172.936-.4-.5,1.172-.936a.593.593,0,0,1-.01-.1.636.636,0,0,1,.32-.551v-2.009h.641v2.009a.638.638,0,0,1-.32,1.192Z" transform="translate(-100.196 -94.67)" fill="#fff"/>
    <path id="Path_350" data-name="Path 350" d="M51.147,88.841H61.268A4.232,4.232,0,0,1,63.415,83.4H61.882v-1.92h1.843v1.8a3.816,3.816,0,0,1,1.227-.2,3.875,3.875,0,0,1,.919.116V77H49.92V87.567A1.254,1.254,0,0,0,51.147,88.841ZM61.882,77.958h1.843v1.917H61.882Zm-3.368,0h1.843v1.917H58.508Zm0,3.516h1.843v1.92H58.508Zm0,3.516h1.843v1.922H58.508Zm-3.368-7.044h1.828v1.929H55.135Zm0,3.516h1.828v1.92H55.135Zm0,3.516h1.828V86.9H55.135Zm-3.385-7.024H53.6v1.92H51.761Zm0,3.516H53.6v1.92H51.761Zm0,3.516H53.6v1.922H51.761Z" transform="translate(-39.7 -61.115)" fill="#fff"/>
  </g>
</svg>
