<svg xmlns="http://www.w3.org/2000/svg" width="32" height="32" viewBox="0 0 32 32">
  <g id="Store_Detail_Selected" data-name="Store Detail Selected" transform="translate(-2.5 -2.5)">
    <circle id="Ellipse_47" data-name="Ellipse 47" cx="16" cy="16" r="16" transform="translate(2.5 2.5)" fill="#f19820"/>
    <path id="Path_347" data-name="Path 347" d="M63.19,56.949v4.93H61.068V57.243a.262.262,0,1,0-.522,0v4.635H58.425v-4.93a.784.784,0,0,1,.784-.784h3.2A.784.784,0,0,1,63.19,56.949ZM67.5,54.482a2.664,2.664,0,0,1-2.734-.431.263.263,0,0,0-.34,0,2.664,2.664,0,0,1-3.447,0,.268.268,0,0,0-.343,0,2.664,2.664,0,0,1-3.447,0,.26.26,0,0,0-.34,0,2.664,2.664,0,0,1-2.731.431.262.262,0,0,0-.36.241V60.57a1.307,1.307,0,0,0,1.307,1.305H57.9V56.949a1.308,1.308,0,0,1,1.307-1.305h3.2a1.308,1.308,0,0,1,1.307,1.305v4.93h2.839a1.305,1.305,0,0,0,1.305-1.305V54.727a.26.26,0,0,0-.359-.244ZM54.93,50.648a.26.26,0,0,1-.26-.277.268.268,0,0,1,.27-.244H68.154a.262.262,0,0,0,.24-.365l-1.478-3.394a.26.26,0,0,0-.24-.157H54.924a.263.263,0,0,0-.24.157l-1.7,3.918a8.9,8.9,0,0,0-.022,1.724,2.153,2.153,0,0,0,3.946,1.205.13.13,0,0,1,.218,0,2.153,2.153,0,0,0,3.57,0,.132.132,0,0,1,.218,0,2.152,2.152,0,0,0,3.568,0,.132.132,0,0,1,.216,0,2.155,2.155,0,0,0,3.94-1.238V50.91a.26.26,0,0,0-.26-.262Z" transform="translate(-42.04 -36.414)" fill="#fff"/>
  </g>
</svg>
